<?xml version="1.0" encoding="UTF-8"?>
<!DOCTYPE svg PUBLIC "-//W3C//DTD SVG 1.1//EN" "http://www.w3.org/Graphics/SVG/1.1/DTD/svg11.dtd">
<svg version="1.1" xmlns="http://www.w3.org/2000/svg" xmlns:xlink="http://www.w3.org/1999/xlink" x="0" y="0" width="150" height="150" viewBox="0, 0, 150, 150">
  <g id="Background">
    <rect x="0" y="0" width="150" height="150" fill="#FFFFFF"/>
  </g>
  <g id="Layer_4">
    <path d="M-20.634,-10.435 L165.499,-10.435 L165.499,162.402 L-20.634,162.402 L-20.634,-10.435 z" fill="#FFFFFF"/>
  </g>
  <g id="Layer_3">
    <g>
      <path d="M55.219,79.128 L59.1,56.495 L42.656,40.466 L65.381,37.164 L75.544,16.571 L85.707,37.164 L108.432,40.466 L91.988,56.495 L95.87,79.128 L75.544,68.442 z" fill="#FF9801"/>
      <path d="M55.219,79.128 L59.1,56.495 L42.656,40.466 L65.381,37.164 L75.544,16.571 L85.707,37.164 L108.432,40.466 L91.988,56.495 L95.87,79.128 L75.544,68.442 z" fill-opacity="0" stroke="#FF9801" stroke-width="2"/>
    </g>
    <path d="M23.424,116.449 L23.424,107.689 L20.704,107.689 L20.704,116.449 L11.984,116.449 L11.984,119.169 L20.704,119.169 L20.704,127.929 L23.424,127.929 L23.424,119.169 L32.144,119.169 L32.144,116.449 z" fill="#6A6A6A"/>
    <path d="M52.864,103.049 L52.864,100.049 L38.864,100.049 L36.224,114.769 L39.144,114.929 Q40.144,113.729 41.444,112.989 Q42.744,112.249 44.424,112.249 Q45.864,112.249 47.044,112.729 Q48.224,113.209 49.064,114.069 Q49.904,114.929 50.364,116.109 Q50.824,117.289 50.824,118.689 Q50.824,120.369 50.344,121.629 Q49.864,122.889 49.044,123.729 Q48.224,124.569 47.124,124.989 Q46.024,125.409 44.824,125.409 Q43.544,125.409 42.484,125.029 Q41.424,124.649 40.644,123.949 Q39.864,123.249 39.404,122.309 Q38.944,121.369 38.864,120.289 L35.464,120.289 Q35.504,122.209 36.224,123.729 Q36.944,125.249 38.184,126.269 Q39.424,127.289 41.044,127.829 Q42.664,128.369 44.504,128.369 Q46.984,128.369 48.844,127.589 Q50.704,126.809 51.944,125.489 Q53.184,124.169 53.804,122.469 Q54.424,120.769 54.424,118.969 Q54.424,116.529 53.704,114.709 Q52.984,112.889 51.744,111.669 Q50.504,110.449 48.824,109.849 Q47.144,109.249 45.264,109.249 Q43.824,109.249 42.364,109.749 Q40.904,110.249 39.984,111.289 L39.904,111.209 L41.424,103.049 z" fill="#6A6A6A"/>
    <path d="M61.584,113.969 Q61.584,112.929 61.604,111.669 Q61.624,110.409 61.804,109.149 Q61.984,107.889 62.324,106.689 Q62.664,105.489 63.324,104.589 Q63.984,103.689 64.984,103.129 Q65.984,102.569 67.424,102.569 Q68.864,102.569 69.864,103.129 Q70.864,103.689 71.524,104.589 Q72.184,105.489 72.524,106.689 Q72.864,107.889 73.044,109.149 Q73.224,110.409 73.244,111.669 Q73.264,112.929 73.264,113.969 Q73.264,115.569 73.164,117.549 Q73.064,119.529 72.524,121.269 Q71.984,123.009 70.784,124.209 Q69.584,125.409 67.424,125.409 Q65.264,125.409 64.064,124.209 Q62.864,123.009 62.324,121.269 Q61.784,119.529 61.684,117.549 Q61.584,115.569 61.584,113.969 z M57.984,114.009 Q57.984,115.569 58.064,117.249 Q58.144,118.929 58.464,120.529 Q58.784,122.129 59.384,123.549 Q59.984,124.969 61.024,126.049 Q62.064,127.129 63.644,127.749 Q65.224,128.369 67.424,128.369 Q69.664,128.369 71.224,127.749 Q72.784,127.129 73.824,126.049 Q74.864,124.969 75.464,123.549 Q76.064,122.129 76.384,120.529 Q76.704,118.929 76.784,117.249 Q76.864,115.569 76.864,114.009 Q76.864,112.449 76.784,110.769 Q76.704,109.089 76.384,107.489 Q76.064,105.889 75.464,104.449 Q74.864,103.009 73.824,101.929 Q72.784,100.849 71.204,100.209 Q69.624,99.569 67.424,99.569 Q65.224,99.569 63.644,100.209 Q62.064,100.849 61.024,101.929 Q59.984,103.009 59.384,104.449 Q58.784,105.889 58.464,107.489 Q58.144,109.089 58.064,110.769 Q57.984,112.449 57.984,114.009 z" fill="#6A6A6A"/>
    <path d="M99.584,113.249 L89.664,127.929 L93.904,127.929 L101.824,116.129 L109.504,127.929 L114.144,127.929 L104.104,113.249 L113.544,99.369 L109.304,99.369 L101.864,110.529 L94.744,99.369 L90.184,99.369 z" fill="#6A6A6A"/>
    <path d="M121.024,113.049 L121.024,102.569 L128.464,102.569 Q131.704,102.569 133.204,103.909 Q134.704,105.249 134.704,107.809 Q134.704,110.369 133.204,111.729 Q131.704,113.089 128.464,113.049 z M117.224,99.369 L117.224,127.929 L121.024,127.929 L121.024,116.249 L129.744,116.249 Q134.064,116.289 136.284,114.049 Q138.504,111.809 138.504,107.809 Q138.504,103.809 136.284,101.589 Q134.064,99.369 129.744,99.369 z" fill="#6A6A6A"/>
  </g>
</svg>
