<?xml version="1.0" encoding="UTF-8"?>
<!DOCTYPE svg PUBLIC "-//W3C//DTD SVG 1.1//EN" "http://www.w3.org/Graphics/SVG/1.1/DTD/svg11.dtd">
<svg version="1.1" xmlns="http://www.w3.org/2000/svg" xmlns:xlink="http://www.w3.org/1999/xlink" x="0" y="0" width="105" height="40" viewBox="0, 0, 105, 40">
  <g id="Dark">
    <g>
      <path d="M6.142,-0 L98.858,-0 C102.25,-0 105,3.134 105,7 L105,33 C105,36.866 102.25,40 98.858,40 L6.142,40 C2.75,40 0,36.866 0,33 L0,7 C0,3.134 2.75,-0 6.142,-0 z" fill="#000000"/>
      <path d="M98.858,-0 C102.25,-0 105,3.134 105,7 L105,33 C105,36.866 102.25,40 98.858,40 L6.142,40 C2.75,40 0,36.866 0,33 L0,7 C0,3.134 2.75,-0 6.142,-0 L98.858,-0 z M98.858,1 L6.142,1 C3.333,1 1,3.659 1,7 L1,33 C1,36.341 3.333,39 6.142,39 L98.858,39 C101.667,39 104,36.341 104,33 L104,7 C104,3.659 101.667,1 98.858,1 z" fill="#000000"/>
    </g>
    <path d="M22.578,8.187 C15.89,8.187 10.467,13.61 10.467,20.299 C10.467,25.65 13.937,30.19 18.75,31.792 C19.356,31.903 19.577,31.529 19.577,31.208 C19.577,30.921 19.567,30.158 19.561,29.148 C16.192,29.88 15.481,27.524 15.481,27.524 C14.93,26.126 14.136,25.753 14.136,25.753 C13.036,25.001 14.219,25.016 14.219,25.016 C15.435,25.102 16.074,26.265 16.074,26.265 C17.155,28.115 18.909,27.581 19.599,27.271 C19.709,26.488 20.022,25.955 20.368,25.652 C17.679,25.346 14.851,24.307 14.851,19.666 C14.851,18.344 15.323,17.263 16.098,16.416 C15.973,16.11 15.558,14.878 16.216,13.211 C16.216,13.211 17.233,12.885 19.547,14.452 C20.513,14.184 21.55,14.049 22.579,14.045 C23.608,14.049 24.644,14.184 25.611,14.452 C27.924,12.885 28.939,13.211 28.939,13.211 C29.6,14.878 29.184,16.11 29.059,16.416 C29.835,17.263 30.305,18.344 30.305,19.666 C30.305,24.319 27.473,25.343 24.774,25.642 C25.209,26.016 25.597,26.755 25.597,27.885 C25.597,29.504 25.582,30.811 25.582,31.208 C25.582,31.532 25.8,31.909 26.415,31.79 C31.224,30.185 34.691,25.649 34.691,20.299 C34.691,13.61 29.267,8.187 22.578,8.187" fill="#FFFFFF"/>
    <g id="GitHub">
      <g>
        <path d="M86.539,19.185 L87.992,19.185 L87.992,23.61 Q88.481,22.971 89.162,22.634 Q89.843,22.298 90.64,22.298 Q92.3,22.298 93.333,23.44 Q94.367,24.581 94.367,26.806 Q94.367,28.914 93.346,30.309 Q92.325,31.703 90.515,31.703 Q89.502,31.703 88.805,31.213 Q88.39,30.923 87.917,30.284 L87.917,31.421 L86.539,31.421 z M90.424,30.383 Q91.636,30.383 92.238,29.42 Q92.839,28.457 92.839,26.88 Q92.839,25.477 92.238,24.556 Q91.636,23.635 90.465,23.635 Q89.444,23.635 88.677,24.39 Q87.909,25.145 87.909,26.88 Q87.909,28.134 88.224,28.914 Q88.813,30.383 90.424,30.383 z" fill="#FFFFFF"/>
        <path d="M88.192,18.985 L88.192,23.112 C88.586,22.699 88.317,22.947 89.074,22.455 C89.555,22.217 90.078,22.098 90.64,22.098 C91.802,22.098 92.754,22.502 93.481,23.305 C94.208,24.107 94.567,25.277 94.567,26.806 C94.567,28.252 94.214,29.461 93.507,30.427 C92.788,31.408 91.784,31.903 90.515,31.903 C89.801,31.903 89.19,31.728 88.69,31.377 C88.189,30.937 88.364,31.133 88.117,30.836 L88.117,31.621 L86.339,31.621 L86.339,18.985 L88.192,18.985 z M87.992,19.185 L86.539,19.185 L86.539,31.421 L87.917,31.421 L87.917,30.284 Q88.39,30.923 88.805,31.213 Q89.502,31.703 90.515,31.703 Q92.325,31.703 93.346,30.309 Q94.367,28.914 94.367,26.806 Q94.367,24.581 93.333,23.44 Q92.3,22.298 90.64,22.298 Q89.843,22.298 89.162,22.634 Q88.481,22.971 87.992,23.61 L87.992,19.185 z M90.465,23.635 Q91.636,23.635 92.238,24.556 Q92.839,25.477 92.839,26.88 Q92.839,28.457 92.238,29.42 Q91.636,30.383 90.424,30.383 Q88.813,30.383 88.224,28.914 Q87.909,28.134 87.909,26.88 Q87.909,25.145 88.676,24.39 Q89.444,23.635 90.465,23.635 z M90.465,23.834 C89.838,23.835 89.292,24.065 88.817,24.533 C88.349,24.993 88.109,25.772 88.109,26.88 C88.109,27.692 88.21,28.345 88.41,28.84 C88.772,29.743 89.432,30.183 90.424,30.183 C91.164,30.183 91.704,29.897 92.068,29.314 C92.447,28.707 92.639,27.897 92.639,26.88 C92.639,25.982 92.449,25.245 92.07,24.665 C91.707,24.109 91.179,23.835 90.465,23.835 z" fill="#FFFFFF"/>
      </g>
      <g>
        <path d="M78.695,22.531 L78.695,28.433 Q78.695,29.113 78.911,29.545 Q79.309,30.342 80.396,30.342 Q81.957,30.342 82.521,28.947 Q82.829,28.2 82.829,26.897 L82.829,22.531 L84.323,22.531 L84.323,31.421 L82.912,31.421 L82.928,30.109 Q82.638,30.616 82.206,30.964 Q81.351,31.662 80.131,31.662 Q78.23,31.662 77.541,30.392 Q77.167,29.711 77.167,28.574 L77.167,22.531 z" fill="#FFFFFF"/>
        <path d="M78.895,22.331 L78.895,28.433 C78.895,28.857 78.961,29.198 79.09,29.455 C79.319,29.914 79.743,30.142 80.396,30.142 C81.356,30.142 81.991,29.725 82.337,28.871 C82.53,28.401 82.629,27.742 82.629,26.897 L82.629,22.331 L84.523,22.331 L84.523,31.621 L82.709,31.621 L82.712,31.418 L82.72,30.74 L82.332,31.119 C81.726,31.614 80.989,31.862 80.131,31.861 C78.795,31.862 77.863,31.404 77.366,30.488 C77.099,30.001 76.967,29.363 76.967,28.574 L76.967,22.331 L78.895,22.331 z M78.695,22.531 L77.167,22.531 L77.167,28.574 Q77.167,29.711 77.541,30.392 Q78.23,31.662 80.131,31.662 Q81.351,31.662 82.206,30.964 Q82.638,30.616 82.928,30.109 L82.912,31.421 L84.323,31.421 L84.323,22.531 L82.829,22.531 L82.829,26.897 Q82.829,28.2 82.521,28.947 Q81.957,30.342 80.396,30.342 Q79.309,30.342 78.911,29.545 Q78.695,29.113 78.695,28.433 L78.695,22.531 z" fill="#FFFFFF"/>
      </g>
      <g>
        <path d="M65.165,19.227 L66.833,19.227 L66.833,24.266 L73.175,24.266 L73.175,19.227 L74.843,19.227 L74.843,31.421 L73.175,31.421 L73.175,25.718 L66.833,25.718 L66.833,31.421 L65.165,31.421 z" fill="#FFFFFF"/>
        <path d="M67.033,19.027 L67.033,24.066 L72.975,24.066 L72.975,19.027 L75.043,19.027 L75.043,31.621 L72.975,31.621 L72.975,25.918 L67.033,25.918 L67.033,31.621 L64.965,31.621 L64.965,19.027 L67.033,19.027 z M66.833,19.227 L65.164,19.227 L65.164,31.421 L66.833,31.421 L66.833,25.718 L73.175,25.718 L73.175,31.421 L74.843,31.421 L74.843,19.227 L73.175,19.227 L73.175,24.265 L66.833,24.265 L66.833,19.227 z" fill="#FFFFFF"/>
      </g>
      <g>
        <path d="M60.5,20.049 L62.01,20.049 L62.01,22.531 L63.43,22.531 L63.43,23.751 L62.01,23.751 L62.01,29.553 Q62.01,30.018 62.326,30.176 Q62.5,30.267 62.907,30.267 Q63.015,30.267 63.139,30.263 Q63.264,30.259 63.43,30.242 L63.43,31.421 Q63.172,31.496 62.894,31.529 Q62.616,31.562 62.292,31.562 Q61.247,31.562 60.873,31.027 Q60.5,30.491 60.5,29.636 L60.5,23.751 L59.296,23.751 L59.296,22.531 L60.5,22.531 z" fill="#FFFFFF"/>
        <path d="M62.21,19.849 L62.21,22.331 L63.63,22.331 L63.63,23.951 L62.21,23.951 L62.21,29.553 C62.21,29.793 62.279,29.929 62.418,29.999 C62.5,30.041 62.665,30.067 62.907,30.067 C62.976,30.067 63.052,30.066 63.132,30.063 C63.211,30.06 63.303,30.054 63.41,30.043 L63.63,30.021 L63.63,31.571 L63.485,31.613 C63.303,31.666 63.114,31.704 62.918,31.727 C62.724,31.75 62.516,31.762 62.292,31.762 C61.536,31.762 61.002,31.56 60.709,31.141 C60.435,30.748 60.3,30.245 60.299,29.636 L60.299,23.951 L59.096,23.951 L59.096,22.331 L60.299,22.331 L60.299,19.849 L62.21,19.849 z M62.01,20.049 L60.5,20.049 L60.5,22.531 L59.296,22.531 L59.296,23.751 L60.5,23.751 L60.5,29.636 Q60.5,30.491 60.873,31.027 Q61.247,31.562 62.292,31.562 Q62.616,31.562 62.894,31.529 Q63.172,31.496 63.43,31.421 L63.43,30.242 Q63.264,30.259 63.139,30.263 Q63.015,30.267 62.907,30.267 Q62.5,30.267 62.326,30.176 Q62.01,30.018 62.01,29.553 L62.01,23.751 L63.43,23.751 L63.43,22.531 L62.01,22.531 L62.01,20.049 z" fill="#FFFFFF"/>
      </g>
      <g>
        <path d="M56.424,22.572 L57.943,22.572 L57.943,31.421 L56.424,31.421 z M56.424,19.227 L57.943,19.227 L57.943,20.92 L56.424,20.92 z" fill="#FFFFFF"/>
        <path d="M58.143,22.372 L58.143,31.621 L56.224,31.621 L56.224,22.372 L58.143,22.372 z M57.943,22.572 L56.424,22.572 L56.424,31.421 L57.943,31.421 L57.943,22.572 z M58.143,19.027 L58.143,21.12 L56.224,21.12 L56.224,19.027 L58.143,19.027 z M57.943,19.227 L56.424,19.227 L56.424,20.92 L57.943,20.92 L57.943,19.227 z" fill="#FFFFFF"/>
      </g>
      <g>
        <path d="M48.671,18.912 Q50.389,18.912 51.643,19.576 Q53.46,20.53 53.867,22.921 L52.232,22.921 Q51.933,21.584 50.995,20.974 Q50.057,20.364 48.629,20.364 Q46.936,20.364 45.778,21.634 Q44.62,22.904 44.62,25.419 Q44.62,27.594 45.575,28.96 Q46.529,30.325 48.688,30.325 Q50.339,30.325 51.423,29.366 Q52.506,28.408 52.531,26.266 L48.712,26.266 L48.712,24.896 L54.066,24.896 L54.066,31.421 L53.004,31.421 L52.605,29.852 Q51.767,30.773 51.12,31.13 Q50.032,31.745 48.355,31.745 Q46.189,31.745 44.628,30.342 Q42.927,28.582 42.927,25.511 Q42.927,22.448 44.587,20.638 Q46.164,18.912 48.671,18.912 z" fill="#FFFFFF"/>
        <path d="M48.671,18.712 C49.848,18.712 50.87,18.94 51.736,19.399 C53.006,20.065 53.783,21.235 54.064,22.887 L54.104,23.121 L52.072,23.121 L52.037,22.964 C51.848,22.122 51.465,21.518 50.886,21.142 C50.296,20.758 49.545,20.564 48.629,20.564 C47.557,20.564 46.66,20.964 45.926,21.769 C45.192,22.574 44.82,23.788 44.82,25.419 C44.82,26.831 45.128,27.971 45.739,28.845 C46.334,29.697 47.31,30.125 48.687,30.125 C49.742,30.125 50.606,29.822 51.29,29.216 C52.076,28.518 52.238,27.458 52.315,26.466 L48.512,26.466 L48.512,24.696 L54.266,24.696 L54.266,31.621 L52.848,31.621 L52.81,31.47 L52.497,30.239 C51.73,30.996 52.153,30.636 51.218,31.304 C50.46,31.732 49.506,31.945 48.355,31.944 C46.862,31.945 45.572,31.459 44.485,30.481 C43.312,29.268 42.727,27.607 42.727,25.511 C42.727,23.421 43.297,21.749 44.439,20.503 C45.529,19.31 46.945,18.712 48.671,18.712 z M48.671,18.912 Q46.164,18.912 44.587,20.638 Q42.927,22.448 42.927,25.511 Q42.927,28.582 44.628,30.342 Q46.189,31.745 48.355,31.744 Q50.032,31.745 51.12,31.13 Q51.767,30.773 52.605,29.852 L53.004,31.421 L54.066,31.421 L54.066,24.896 L48.712,24.896 L48.712,26.266 L52.531,26.266 Q52.506,28.408 51.423,29.366 Q50.339,30.325 48.687,30.325 Q46.529,30.325 45.575,28.96 Q44.62,27.594 44.62,25.419 Q44.62,22.904 45.778,21.634 Q46.936,20.364 48.629,20.364 Q50.057,20.364 50.995,20.974 Q51.933,21.584 52.232,22.921 L53.867,22.921 Q53.46,20.53 51.643,19.576 Q50.389,18.912 48.671,18.912 z" fill="#FFFFFF"/>
      </g>
    </g>
    <g id="Available_on">
      <path d="M89.461,9.995 L90.212,9.995 L90.212,10.663 Q90.546,10.25 90.92,10.07 Q91.293,9.89 91.75,9.89 Q92.752,9.89 93.104,10.588 Q93.297,10.971 93.297,11.682 L93.297,14.702 L92.493,14.702 L92.493,11.735 Q92.493,11.305 92.366,11.041 Q92.155,10.601 91.601,10.601 Q91.32,10.601 91.14,10.659 Q90.814,10.755 90.568,11.045 Q90.37,11.278 90.311,11.526 Q90.252,11.775 90.252,12.236 L90.252,14.702 L89.461,14.702 z" fill="#FFFFFF"/>
      <path d="M86.173,14.192 Q86.96,14.192 87.252,13.596 Q87.544,13.001 87.544,12.271 Q87.544,11.612 87.333,11.199 Q86.999,10.549 86.182,10.549 Q85.457,10.549 85.127,11.102 Q84.798,11.656 84.798,12.438 Q84.798,13.19 85.127,13.691 Q85.457,14.192 86.173,14.192 z M86.204,9.859 Q87.114,9.859 87.742,10.465 Q88.37,11.072 88.37,12.249 Q88.37,13.388 87.817,14.13 Q87.263,14.873 86.098,14.873 Q85.127,14.873 84.556,14.216 Q83.985,13.559 83.985,12.452 Q83.985,11.265 84.587,10.562 Q85.189,9.859 86.204,9.859 z" fill="#FFFFFF"/>
      <path d="M78.46,9.89 Q78.961,9.89 79.431,10.125 Q79.901,10.36 80.147,10.733 Q80.384,11.089 80.463,11.564 Q80.534,11.889 80.534,12.601 L77.084,12.601 Q77.106,13.317 77.422,13.75 Q77.739,14.183 78.402,14.183 Q79.022,14.183 79.391,13.774 Q79.602,13.537 79.69,13.225 L80.468,13.225 Q80.437,13.484 80.263,13.803 Q80.09,14.121 79.875,14.324 Q79.514,14.675 78.982,14.798 Q78.697,14.869 78.336,14.869 Q77.458,14.869 76.847,14.229 Q76.236,13.59 76.236,12.438 Q76.236,11.305 76.851,10.597 Q77.466,9.89 78.46,9.89 z M79.721,11.973 Q79.672,11.458 79.497,11.151 Q79.171,10.579 78.411,10.579 Q77.866,10.579 77.497,10.973 Q77.128,11.366 77.106,11.973 z" fill="#FFFFFF"/>
      <path d="M74.372,8.246 L75.163,8.246 L75.163,14.702 L74.372,14.702 z" fill="#FFFFFF"/>
      <path d="M69.133,8.224 L69.902,8.224 L69.902,10.566 Q70.161,10.228 70.522,10.05 Q70.882,9.872 71.304,9.872 Q72.183,9.872 72.73,10.476 Q73.277,11.08 73.277,12.258 Q73.277,13.374 72.737,14.113 Q72.196,14.851 71.238,14.851 Q70.702,14.851 70.333,14.592 Q70.113,14.438 69.863,14.099 L69.863,14.702 L69.133,14.702 z M71.19,14.152 Q71.831,14.152 72.15,13.642 Q72.469,13.133 72.469,12.298 Q72.469,11.555 72.15,11.067 Q71.831,10.579 71.212,10.579 Q70.671,10.579 70.265,10.979 Q69.858,11.379 69.858,12.298 Q69.858,12.961 70.025,13.374 Q70.337,14.152 71.19,14.152 z" fill="#FFFFFF"/>
      <path d="M64.646,13.449 Q64.646,13.792 64.896,13.99 Q65.147,14.187 65.49,14.187 Q65.907,14.187 66.298,13.994 Q66.957,13.673 66.957,12.944 L66.957,12.307 Q66.812,12.399 66.584,12.46 Q66.355,12.522 66.136,12.548 L65.657,12.61 Q65.226,12.667 65.011,12.79 Q64.646,12.996 64.646,13.449 z M66.562,11.849 Q66.834,11.814 66.927,11.621 Q66.979,11.516 66.979,11.318 Q66.979,10.913 66.691,10.731 Q66.404,10.549 65.867,10.549 Q65.248,10.549 64.989,10.883 Q64.844,11.067 64.8,11.432 L64.061,11.432 Q64.083,10.562 64.626,10.221 Q65.169,9.881 65.885,9.881 Q66.716,9.881 67.234,10.197 Q67.748,10.514 67.748,11.182 L67.748,13.893 Q67.748,14.016 67.799,14.091 Q67.849,14.165 68.012,14.165 Q68.065,14.165 68.131,14.159 Q68.197,14.152 68.271,14.139 L68.271,14.724 Q68.087,14.776 67.99,14.789 Q67.893,14.803 67.726,14.803 Q67.318,14.803 67.133,14.513 Q67.036,14.359 66.997,14.078 Q66.755,14.394 66.302,14.627 Q65.85,14.86 65.305,14.86 Q64.65,14.86 64.235,14.462 Q63.82,14.064 63.82,13.467 Q63.82,12.812 64.228,12.452 Q64.637,12.091 65.301,12.008 z" fill="#FFFFFF"/>
      <path d="M61.912,8.246 L62.703,8.246 L62.703,14.702 L61.912,14.702 z" fill="#FFFFFF"/>
      <path d="M59.74,10.017 L60.544,10.017 L60.544,14.702 L59.74,14.702 z M59.74,8.246 L60.544,8.246 L60.544,9.142 L59.74,9.142 z" fill="#FFFFFF"/>
      <path d="M55.191,13.449 Q55.191,13.792 55.442,13.99 Q55.692,14.187 56.035,14.187 Q56.453,14.187 56.844,13.994 Q57.503,13.673 57.503,12.944 L57.503,12.307 Q57.358,12.399 57.129,12.46 Q56.901,12.522 56.681,12.548 L56.202,12.61 Q55.771,12.667 55.556,12.79 Q55.191,12.996 55.191,13.449 z M57.107,11.849 Q57.38,11.814 57.472,11.621 Q57.525,11.516 57.525,11.318 Q57.525,10.913 57.237,10.731 Q56.949,10.549 56.413,10.549 Q55.793,10.549 55.534,10.883 Q55.389,11.067 55.345,11.432 L54.607,11.432 Q54.629,10.562 55.172,10.221 Q55.714,9.881 56.431,9.881 Q57.261,9.881 57.78,10.197 Q58.294,10.514 58.294,11.182 L58.294,13.893 Q58.294,14.016 58.344,14.091 Q58.395,14.165 58.558,14.165 Q58.61,14.165 58.676,14.159 Q58.742,14.152 58.817,14.139 L58.817,14.724 Q58.632,14.776 58.536,14.789 Q58.439,14.803 58.272,14.803 Q57.863,14.803 57.679,14.513 Q57.582,14.359 57.542,14.078 Q57.301,14.394 56.848,14.627 Q56.395,14.86 55.851,14.86 Q55.196,14.86 54.78,14.462 Q54.365,14.064 54.365,13.467 Q54.365,12.812 54.774,12.452 Q55.183,12.091 55.846,12.008 z" fill="#FFFFFF"/>
      <path d="M50.322,9.995 L51.578,13.827 L52.892,9.995 L53.758,9.995 L51.983,14.702 L51.139,14.702 L49.403,9.995 z" fill="#FFFFFF"/>
      <path d="M47.359,12.056 L46.379,9.204 L45.338,12.056 z M45.922,8.246 L46.911,8.246 L49.253,14.702 L48.295,14.702 L47.64,12.768 L45.087,12.768 L44.388,14.702 L43.492,14.702 z" fill="#FFFFFF"/>
    </g>
  </g>
</svg>
