<?xml version="1.0" encoding="UTF-8"?>
<!DOCTYPE svg PUBLIC "-//W3C//DTD SVG 1.1//EN" "http://www.w3.org/Graphics/SVG/1.1/DTD/svg11.dtd">
<svg version="1.1" xmlns="http://www.w3.org/2000/svg" xmlns:xlink="http://www.w3.org/1999/xlink" x="0" y="0" width="900" height="900" viewBox="0, 0, 900, 900">
  <g id="Background">
    <rect x="0" y="0" width="900" height="900" fill="#FFFFFF"/>
  </g>
  <g id="Layer_1">
    <path d="M323.375,91.656 C319.756,91.769 315.858,93.106 311.438,96.594 C300.611,92.417 290.11,90.967 280.719,99.469 C266.225,97.588 261.508,101.469 257.938,106 C254.755,105.934 234.119,102.728 224.656,116.844 C200.875,114.03 193.359,130.832 201.875,146.5 C197.018,154.019 191.986,161.447 203.344,175.781 C199.326,183.765 201.816,192.425 211.281,202.906 C208.783,214.129 213.693,222.047 222.5,228.219 C220.853,243.576 236.584,252.506 241.281,255.688 C243.085,264.636 246.844,273.08 264.812,277.75 C267.776,291.086 278.575,293.389 289.031,296.188 C254.469,316.277 224.831,342.71 225.031,407.562 L219.969,416.594 C180.338,440.696 144.683,518.16 200.438,581.125 C204.079,600.833 210.187,614.989 215.625,630.656 C223.759,693.787 276.843,723.348 290.844,726.844 C311.36,742.472 333.212,757.3 362.781,767.688 C390.656,796.437 420.855,807.394 451.219,807.375 C451.664,807.375 452.117,807.38 452.562,807.375 C482.926,807.394 513.125,796.437 541,767.688 C570.569,757.3 592.421,742.472 612.938,726.844 C626.939,723.348 680.022,693.787 688.156,630.656 C693.594,614.989 699.702,600.833 703.344,581.125 C759.098,518.16 723.443,440.696 683.812,416.594 L678.75,407.562 C678.951,342.71 649.312,316.277 614.75,296.188 C625.207,293.389 636.005,291.086 638.969,277.75 C656.937,273.08 660.696,264.636 662.5,255.688 C667.198,252.506 682.928,243.576 681.281,228.219 C690.088,222.047 694.998,214.129 692.5,202.906 C701.965,192.425 704.456,183.765 700.438,175.781 C711.796,161.447 706.763,154.019 701.906,146.5 C710.422,130.832 702.907,114.03 679.125,116.844 C669.663,102.728 649.026,105.934 645.844,106 C642.273,101.469 637.556,97.588 623.062,99.469 C613.671,90.967 603.171,92.417 592.344,96.594 C579.485,86.446 570.971,94.58 561.25,97.656 C545.676,92.568 542.117,99.537 534.469,102.375 C517.494,98.787 512.333,106.599 504.188,114.844 L494.719,114.656 C469.108,129.749 456.385,160.482 451.875,176.281 C447.363,160.479 434.669,129.747 409.062,114.656 L399.594,114.844 C391.448,106.599 386.288,98.787 369.312,102.375 C361.664,99.537 358.105,92.568 342.531,97.656 C336.152,95.638 330.285,91.442 323.375,91.656 z" fill="#000000"/>
    <path d="M272.392,158.056 C340.34,193.087 379.839,221.425 401.479,245.56 C390.397,289.978 332.583,292.005 311.443,290.759 C315.772,288.744 319.383,286.331 320.664,282.623 C315.359,278.853 296.551,282.226 283.42,274.849 C288.464,273.804 290.824,272.786 293.183,269.063 C280.777,265.107 267.415,261.697 259.555,255.142 C263.797,255.195 267.757,256.091 273.296,252.249 C262.184,246.261 250.327,241.516 241.114,232.362 C246.86,232.221 253.054,232.305 254.855,230.193 C244.684,223.892 236.104,216.885 229.001,209.22 C237.041,210.191 240.436,209.355 242.38,207.955 C234.692,200.081 224.962,193.432 220.323,183.728 C226.293,185.786 231.754,186.573 235.691,183.548 C233.078,177.654 221.885,174.178 215.442,160.406 C221.726,161.015 228.391,161.777 229.724,160.406 C226.802,148.517 221.797,141.836 216.888,134.914 C230.338,134.714 250.716,134.966 249.793,133.829 L241.476,125.332 C254.614,121.795 268.057,125.9 277.816,128.948 C282.198,125.49 277.738,121.118 272.392,116.654 C283.557,118.144 293.646,120.711 302.765,124.247 C307.638,119.848 299.601,115.448 295.714,111.049 C312.964,114.322 320.271,118.92 327.534,123.524 C332.803,118.473 327.836,114.181 324.28,109.783 C337.285,114.601 343.985,120.819 351.037,126.959 C353.429,123.732 357.112,121.367 352.665,113.58 C361.899,118.903 368.854,125.175 373.998,132.202 C379.712,128.564 377.402,123.589 377.433,119.004 C387.03,126.811 393.12,135.118 400.575,143.23 C402.077,142.137 403.392,138.429 404.553,132.564 C427.448,154.775 459.798,210.722 412.869,232.904 C372.95,199.957 325.253,176.017 272.392,158.056 z" fill="#009CA3"/>
    <path d="M632.925,158.056 C564.977,193.087 525.478,221.425 503.838,245.56 C514.92,289.978 572.734,292.005 593.873,290.759 C589.545,288.744 585.933,286.331 584.653,282.623 C589.957,278.853 608.766,282.226 621.896,274.849 C616.852,273.804 614.493,272.786 612.134,269.063 C624.539,265.107 637.902,261.697 645.761,255.142 C641.52,255.195 637.56,256.091 632.021,252.249 C643.133,246.261 654.99,241.516 664.202,232.362 C658.457,232.221 652.263,232.305 650.462,230.193 C660.632,223.892 669.213,216.885 676.315,209.22 C668.276,210.191 664.88,209.355 662.937,207.955 C670.625,200.081 680.354,193.432 684.994,183.728 C679.024,185.786 673.562,186.573 669.626,183.548 C672.238,177.654 683.432,174.178 689.875,160.406 C683.591,161.015 676.925,161.777 675.592,160.406 C678.515,148.517 683.52,141.836 688.429,134.914 C674.979,134.714 654.601,134.966 655.524,133.829 L663.841,125.332 C650.703,121.795 637.26,125.9 627.501,128.948 C623.119,125.49 627.579,121.118 632.925,116.654 C621.76,118.144 611.671,120.711 602.551,124.247 C597.679,119.848 605.715,115.448 609.602,111.049 C592.353,114.322 585.045,118.92 577.783,123.524 C572.513,118.473 577.481,114.181 581.037,109.783 C568.031,114.601 561.332,120.819 554.279,126.959 C551.888,123.732 548.204,121.367 552.652,113.58 C543.418,118.903 536.463,125.175 531.318,132.202 C525.605,128.564 527.915,123.589 527.883,119.004 C518.287,126.811 512.196,135.118 504.742,143.23 C503.24,142.137 501.925,138.429 500.764,132.564 C477.869,154.775 445.518,210.722 492.448,232.904 C532.366,199.957 580.064,176.017 632.925,158.056 z" fill="#009CA3"/>
    <path d="M534.946,610.361 C534.946,651.811 498.507,685.413 453.556,685.413 C408.606,685.413 372.166,651.811 372.166,610.361 C372.166,568.911 408.606,535.309 453.556,535.309 C498.507,535.309 534.946,568.911 534.946,610.361 z" fill="#BC1142" display="none"/>
    <path d="M406.454,395.962 C440.178,418.057 446.257,468.14 420.033,507.825 C393.808,547.51 345.21,561.769 311.486,539.675 C277.762,517.58 271.683,467.498 297.907,427.813 C324.132,388.127 372.73,373.868 406.454,395.962 z" fill="#BC1142" display="none"/>
    <path d="M497.486,391.962 C463.762,414.057 457.683,464.14 483.907,503.825 C510.132,543.51 558.73,557.769 592.454,535.675 C626.178,513.58 632.257,463.498 606.033,423.813 C579.808,384.127 531.21,369.868 497.486,391.962 z" fill="#BC1142" display="none"/>
    <path d="M237.91,432.088 C274.324,422.331 250.202,582.724 220.577,569.564 C187.99,543.351 177.494,466.588 237.91,432.088 z" fill="#BC1142" display="none"/>
    <path d="M658.678,430.088 C622.264,420.331 646.387,580.724 676.012,567.564 C708.598,541.351 719.095,464.588 658.678,430.088 z" fill="#BC1142" display="none"/>
    <path d="M534.972,310.653 C597.806,300.043 650.088,337.376 647.983,405.511 C645.916,431.632 511.824,314.542 534.972,310.653 z" fill="#BC1142" display="none"/>
    <path d="M361.36,308.653 C298.525,298.043 246.244,335.376 248.348,403.511 C250.415,429.632 384.507,312.542 361.36,308.653 z" fill="#BC1142" display="none"/>
    <path d="M451.619,292.756 C414.117,291.78 378.124,320.59 378.038,337.3 C377.933,357.604 407.689,378.393 451.875,378.92 C496.998,379.244 525.791,362.28 525.936,341.326 C526.101,317.586 484.897,292.389 451.619,292.756 z" fill="#BC1142" display="none"/>
    <path d="M453.909,709.117 C486.607,707.69 530.48,719.649 530.566,735.513 C531.109,750.918 490.776,785.723 451.74,785.05 C411.313,786.794 371.671,751.935 372.19,739.852 C371.585,722.136 421.416,708.304 453.909,709.117 z" fill="#BC1142" display="none"/>
    <path d="M333.139,615.104 C356.418,643.149 367.029,692.423 347.602,706.947 C329.223,718.035 284.59,713.469 252.866,667.896 C231.471,629.654 234.228,590.739 249.25,579.306 C271.715,565.622 306.424,584.105 333.139,615.104 z" fill="#BC1142" display="none"/>
    <path d="M570.021,606.212 C544.834,635.713 530.809,689.521 549.183,706.855 C566.751,720.318 613.912,718.436 648.749,670.099 C674.045,637.634 665.569,583.417 651.119,569.024 C629.655,552.422 598.843,573.669 570.021,606.212 z" fill="#BC1142" display="none"/>
  </g>
  <g id="Layer_2">
    <g>
      <path d="M450,795.377 C300.503,795.377 179.311,674.186 179.311,524.688 C179.311,375.191 300.503,253.999 450,253.999 C599.497,253.999 720.689,375.191 720.689,524.688 C720.689,674.186 599.497,795.377 450,795.377 z" fill="#D64462"/>
      <path d="M450,795.377 C300.503,795.377 179.311,674.186 179.311,524.688 C179.311,375.191 300.503,253.999 450,253.999 C599.497,253.999 720.689,375.191 720.689,524.688 C720.689,674.186 599.497,795.377 450,795.377 z" fill-opacity="0" stroke="#000000" stroke-width="26"/>
    </g>
    <g>
      <path d="M545.391,617.215 C520.342,617.215 498.924,608.769 480.076,591.493 C468.432,580.825 458.832,567.754 450,554.163 C441.169,567.754 431.568,580.825 419.926,591.493 C399.673,610.054 376.453,618.424 348.952,617.075 C296.507,616.847 253.912,575.459 253.912,524.618 C253.912,473.637 296.741,432.161 349.386,432.161 C378.194,432.161 402.449,441.695 423.529,461.305 C433.655,470.725 442.203,481.652 450,493.084 C457.797,481.652 466.347,470.725 476.471,461.305 C497.551,441.695 521.806,432.161 550.614,432.161 C603.26,432.161 646.088,473.637 646.088,524.618 C646.088,575.459 603.494,616.847 551.048,617.075 C549.142,617.169 547.255,617.215 545.391,617.215 L545.391,617.215 z M469.179,523.385 C479.628,540.337 489.769,556.116 502.122,567.435 C516.065,580.214 530.761,585.471 549.759,584.466 L550.614,584.443 C585.265,584.443 613.457,557.607 613.457,524.618 C613.457,491.631 585.265,464.793 550.614,464.793 C530.158,464.793 513.661,471.277 498.697,485.196 C487.521,495.594 478.293,508.916 469.179,523.385 L469.179,523.385 z M349.386,464.793 C314.735,464.793 286.543,491.631 286.543,524.618 C286.543,557.607 314.735,584.443 349.386,584.443 L350.243,584.466 C369.242,585.471 383.935,580.214 397.878,567.435 C410.231,556.116 420.373,540.337 430.821,523.385 C421.707,508.916 412.479,495.594 401.305,485.196 C386.339,471.277 369.842,464.793 349.386,464.793 L349.386,464.793 z" fill="#FFFFFF"/>
      <path d="M554.929,512.759 L554.929,495.064 L536.511,495.064 L536.511,512.759 L518.817,512.759 L518.817,531.088 L536.511,531.088 L536.511,548.914 L554.929,548.914 L554.929,531.088 L572.625,531.088 L572.625,512.759 L554.929,512.759" fill="#FFFFFF"/>
      <path d="M322.891,512.538 L381.05,512.538 L381.05,531.442 L322.891,531.442 L322.891,512.538 z" fill="#FFFFFF"/>
    </g>
  </g>
</svg>
