<svg xmlns="http://www.w3.org/2000/svg" width="256" height="256" viewBox="0, 0, 1024, 1024"><path fill="#FFF" d="M0 0h1024v1024H0z"/><defs><clipPath id="a"><path d="M0 0h1024v1024H0z"/></clipPath><clipPath id="b"><path d="M-4 0h1024v1024H-4z"/></clipPath><linearGradient id="c" gradientUnits="userSpaceOnUse" x1="400.896" y1="543.18" x2="400.896" y2="463.294"><stop offset="0" stop-color="#00AEEF"/><stop offset="1" stop-color="#2E3192"/></linearGradient><linearGradient id="d" gradientUnits="userSpaceOnUse" x1="610.474" y1="543.181" x2="610.474" y2="463.294"><stop offset="0" stop-color="#00AEEF"/><stop offset="1" stop-color="#2E3192"/></linearGradient></defs><g clip-path="url(#b)"><path d="M944.964 604.788c65.155-111.353-89-121.108-89-121.108 123.178-106.91-41.415-169.294-41.415-169.294l-298.166 2.173-304.717-2.174S47.075 376.77 170.253 483.68c0 0-154.157 9.755-89.002 121.108 0 0-107.86 27.004-62.296 123.526 13.848 29.338 31.463 34.922 75.662 44.377 0 0-33.013 86.3 29.238 109.43 14.343 5.325 97.732 27.564 187.112-14.2 0 0 76.85 136.706 202.142 63.222C638.4 1004.626 715.25 867.92 715.25 867.92c89.38 41.764 172.77 19.525 187.113 14.2 62.25-23.13 29.237-109.43 29.237-109.43 44.2-9.454 61.814-15.038 75.662-44.376 45.564-96.522-62.298-123.526-62.298-123.526" fill="#36322F"/><path d="M944.964 604.788c65.155-111.353-89-121.108-89-121.108 123.178-106.91-41.415-169.294-41.415-169.294l-298.166 2.173-304.717-2.174S47.075 376.77 170.253 483.68c0 0-154.157 9.755-89.002 121.108 0 0-107.86 27.004-62.296 123.526 13.848 29.338 31.463 34.922 75.662 44.377 0 0-33.013 86.3 29.238 109.43 14.343 5.325 97.732 27.564 187.112-14.2 0 0 76.85 136.706 202.142 63.222C638.4 1004.626 715.25 867.92 715.25 867.92c89.38 41.764 172.77 19.525 187.113 14.2 62.25-23.13 29.237-109.43 29.237-109.43 44.2-9.454 61.814-15.038 75.662-44.376 45.564-96.522-62.298-123.526-62.298-123.526z" stroke="#161413" stroke-width="7.301" stroke-linecap="round" stroke-linejoin="round" fill="none"/><path d="M494.787 807.91c-25.035 0-45.402-20.37-45.402-45.41v-69.48c0-25.037 20.367-45.408 45.402-45.408h26.196c25.036 0 45.404 20.37 45.404 45.41v69.48c0 25.037-20.368 45.407-45.404 45.407z" fill="#D7A874"/><path d="M520.982 644.12h-26.196c-26.96 0-48.895 21.937-48.895 48.9v69.48c0 26.965 21.935 48.9 48.896 48.9h26.196c26.962 0 48.896-21.935 48.896-48.9v-69.48c0-26.963-21.934-48.9-48.896-48.9m0 6.985c23.146 0 41.91 18.762 41.91 41.916v69.48c0 23.154-18.764 41.916-41.91 41.916h-26.196c-23.143 0-41.91-18.762-41.91-41.915v-69.48c0-23.153 18.767-41.915 41.91-41.915h26.196" fill="#937251"/><path d="M504.108 1140.09l-1.755.007c-.08 0-.16-.003-.24-.01-118.696-.16-148.647-3.373-149.864-3.51-1.737-.194-3.06-1.64-3.103-3.387-.97-40.867 4.746-283.54 8.798-311.438 4.2-28.808 19.133-90.507 19.284-91.127.358-1.482 1.64-2.56 3.16-2.662.92-.06 92.28-6.132 124.743-6.132h1.445c32.453 0 123.828 6.072 124.747 6.133 1.522.102 2.803 1.18 3.162 2.662.15.62 15.08 62.32 19.27 91.126 4.064 27.916 9.775 270.585 8.8 311.44-.044 1.76-1.39 3.215-3.143 3.392-.332.033-34.57 3.344-153.318 3.506-.08.006-.16.01-.24.01z" fill="#EFBC7F"/><path d="M506.58 718.34H505.134c-32.58-.002-121.22 5.888-124.976 6.14-3.045.202-5.605 2.357-6.325 5.322-.615 2.537-15.123 62.477-19.345 91.444-4.065 27.986-9.805 271.105-8.834 312.027.083 3.492 2.733 6.385 6.204 6.776 1.225.136 31.337 3.366 150.152 3.53.113.006.227.01.342.01.316 0 .62-.003.926-.005.274-.002.547-.004.83-.004.274 0 .543.003.815.005.306.002.614.004.932.004.115 0 .23-.004.343-.01 118.855-.164 152.202-3.386 153.565-3.523 3.505-.353 6.2-3.26 6.283-6.783.978-40.912-4.758-284.026-8.833-312.026-4.216-28.968-18.718-88.908-19.333-91.446-.72-2.965-3.28-5.12-6.324-5.323-3.758-.252-92.41-6.14-124.98-6.14m0 6.984c32.713 0 124.515 6.124 124.515 6.124s14.992 61.83 19.21 90.806c4.024 27.65 9.762 269.005 8.762 310.853 0 0-33.063 3.33-153.208 3.49v.007c-.6 0-1.163-.008-1.748-.008-.598 0-1.157.008-1.756.008v-.008c-120.07-.16-149.714-3.49-149.714-3.49-.993-41.847 4.746-283.2 8.763-310.852 4.223-28.977 19.22-90.806 19.22-90.806s91.79-6.124 124.512-6.124h1.444" fill="#B2854F"/><path d="M302.027 521.296s-31.43-34.93-41.907-19.8c-10.486 15.145-27.946 53.416 33.762 96.642 0 0 17.46 13.965 31.44-4.657 13.965-18.632-23.295-72.184-23.295-72.184" fill="#D7A874"/><path d="M302.027 521.296s-31.43-34.93-41.907-19.8c-10.486 15.145-27.946 53.416 33.762 96.642 0 0 17.46 13.965 31.44-4.657 13.965-18.632-23.295-72.184-23.295-72.184z" stroke="#937251" stroke-width="6.986" stroke-linecap="round" stroke-linejoin="round" fill="none"/><path d="M713.74 521.296s31.433-34.93 41.912-19.8c10.477 15.145 27.95 53.416-33.758 96.642 0 0-17.467 13.965-31.44-4.657-13.97-18.632 23.287-72.184 23.287-72.184" fill="#D7A874"/><path d="M713.74 521.296s31.433-34.93 41.912-19.8c10.477 15.145 27.95 53.416-33.758 96.642 0 0-17.467 13.965-31.44-4.657-13.97-18.632 23.287-72.184 23.287-72.184z" stroke="#937251" stroke-width="6.986" stroke-linecap="round" stroke-linejoin="round" fill="none"/><path d="M506.36 705.242c-.257 0-.513-.028-.765-.085-45.842-10.273-92.37-27.526-131.013-48.582-33.962-18.505-57.715-37.663-63.538-51.248-5.74-13.39-20.23-86.55-31.377-145.565-9.514-50.375-23.37-127.242-23.015-130.204 5.094-43.044 33.918-89.507 77.103-124.285 48.136-38.763 109.437-60.11 172.61-60.11 32.913 0 65.565 5.87 97.047 17.447 28.555 10.5 55.954 25.846 79.24 44.377 45.986 36.6 73.44 82.576 73.44 122.987 0 2.604-12.222 71.42-23.202 129.794-11.12 59.113-25.562 132.35-31.222 145.56-5.82 13.583-29.57 32.74-63.535 51.247-38.643 21.056-85.17 38.31-131.01 48.582-.252.057-.508.085-.764.085" fill="#D7A874"/><path d="M506.366 141.67c-63.968 0-126.047 21.622-174.8 60.883-21.722 17.492-40.35 38.303-53.87 60.182-13.476 21.81-21.952 44.776-24.513 66.42-.15 1.25-.294 2.442 6.865 42.892 4.748 26.828 10.648 59.035 16.187 88.363 11.18 59.188 25.735 132.613 31.598 146.293 6.122 14.28 30.45 34.072 65.077 52.94 38.92 21.206 85.77 38.58 131.92 48.923.504.112 1.016.168 1.53.168.51 0 1.024-.056 1.527-.168 46.148-10.343 92.998-27.717 131.916-48.923 34.63-18.87 58.958-38.66 65.076-52.94 4.642-10.84 15.22-60.057 31.442-146.29 9.73-51.717 23.263-127.08 23.263-130.438 0-41.466-27.948-88.464-74.76-125.72-23.572-18.76-51.308-34.295-80.207-44.923-31.87-11.72-64.927-17.662-98.252-17.662m0 6.985c135.98 0 246.233 102.4 246.233 181.32 0 3.54-43.666 249.526-54.142 273.976-10.478 24.456-90.814 75.1-192.1 97.8-101.292-22.7-181.62-73.344-192.104-97.8-10.48-24.45-54.556-270.457-54.134-273.975 9.883-83.523 110.238-181.32 246.246-181.32" fill="#937251"/><path d="M329.74 428.62s2.855-70.797 71.512-45.05l-5.005 10.726s-47.91-19.31-66.506 34.323" fill="#36322F"/><path d="M329.74 428.62s2.855-70.797 71.512-45.05l-5.005 10.726s-47.91-19.31-66.506 34.323z" stroke="#161413" stroke-width="7.301" stroke-linecap="round" stroke-linejoin="round" fill="none"/><path d="M681.63 428.62s-2.854-70.797-71.51-45.05l5 10.726s47.916-19.31 66.51 34.323" fill="#36322F"/><path d="M681.63 428.62s-2.854-70.797-71.51-45.05l5 10.726s47.916-19.31 66.51 34.323z" stroke="#161413" stroke-width="7.301" stroke-linecap="round" stroke-linejoin="round" fill="none"/><path d="M502.466 1140.04l-1.768.007c-.076 0-.152-.002-.228-.007-120.673-.16-151.113-3.428-152.35-3.566-1.764-.2-3.11-1.67-3.154-3.444-.99-41.5 4.815-288.143 8.944-316.558 4.26-29.28 19.44-91.993 19.594-92.622.365-1.507 1.666-2.603 3.213-2.706.935-.062 93.812-6.236 126.803-6.236h1.46c32.99 0 125.868 6.174 126.802 6.236 1.547.103 2.85 1.2 3.214 2.706.153.63 15.325 63.34 19.586 92.622 4.12 28.35 9.928 275.016 8.943 316.557-.042 1.79-1.412 3.268-3.194 3.447-.336.035-35.142 3.403-155.853 3.563-.075.005-.15.007-.227.007z" fill="#FFF"/><path d="M504.98 711.357h-1.46c-33.11 0-123.22 5.99-127.04 6.244-3.093.208-5.695 2.4-6.427 5.412-.625 2.58-15.372 63.503-19.656 92.948-4.142 28.502-9.972 275.598-8.98 317.155.085 3.55 2.778 6.49 6.306 6.886 1.245.14 31.857 3.427 152.65 3.59.108.004.216.007.325.007.315 0 .623-.002.93-.004l.838-.003.845.003c.31.002.62.004.94.004.11 0 .217-.003.324-.008 120.82-.163 154.728-3.44 156.114-3.58 3.563-.36 6.3-3.316 6.386-6.897.987-41.598-4.847-288.715-8.978-317.152-4.285-29.445-19.025-90.368-19.65-92.947-.73-3.014-3.333-5.205-6.427-5.412-3.82-.254-93.932-6.243-127.04-6.243m0 7.1c33.252 0 126.566 6.23 126.566 6.23s15.237 62.84 19.523 92.295c4.082 28.106 9.914 273.428 8.906 315.963 0 0-33.615 3.387-155.726 3.545v.007c-.61 0-1.183-.007-1.784-.007-.595 0-1.167.007-1.768.007v-.007c-122.05-.158-152.182-3.545-152.182-3.545-1.016-42.535 4.823-287.857 8.907-315.963 4.286-29.454 19.53-92.296 19.53-92.296s93.312-6.23 126.567-6.228h1.46" fill="#878278"/><path d="M619.907 816.982c-3.926-29.454-17.83-92.296-17.83-92.296s-54.513-6.32-84.262-6.227c-29.765-.095-109.12 6.226-109.12 6.226s-13.913 62.842-17.824 92.296c-3.737 28.106-9.06 273.428-8.126 315.963 0 0 20.4 3.387 131.83 3.545v.007c.553 0 1.07-.007 1.618-.007.552 0 1.063.007 1.623.007v-.007c111.49-.158 110.22-3.545 110.22-3.545.92-42.535-4.395-287.857-8.128-315.963" fill="#FFF"/><path d="M502.404 757.732l35.466 71.85 79.294 11.52-57.387 55.932 13.55 78.974-70.923-37.283-70.925 37.283 13.543-78.974-57.372-55.93 79.295-11.52z" fill="#ED1C24"/><path d="M502.404 757.732l35.466 71.85 79.294 11.52-57.387 55.932 13.55 78.974-70.923-37.283-70.925 37.283 13.543-78.974-57.372-55.93 79.295-11.52 35.46-71.852z" stroke="#BE1E2D" stroke-width="7.255" fill="none"/><path d="M643.088 241.804s-23.143 33.31-.616 47.972c22.528 14.664 80.66 11.903 61.4 20.56-67.678 30.41 0 25.692 13.706 41.113 0 0-30.674-16.412-2.404-17.857 28.27-1.446 20.81 71.082 19.776-6.124 0 0 11.464 143.782-12.81 183.924 0 0 21.65-26.04 36.657-14.736l9.014 19.77s61.233-9.92 34.63-62.175c0 0 47.06-17.134 12.794-89.948 0 0 78.017-68.804-59.443-127.07 0 0-9.45-69.832-59.12-45.685-16.518 8.027-53.582 50.254-53.582 50.254" fill="#36322F"/><path d="M643.088 241.804s-23.143 33.31-.616 47.972c22.528 14.664 80.66 11.903 61.4 20.56-67.678 30.41 0 25.692 13.706 41.113 0 0-30.674-16.412-2.404-17.857 28.27-1.446 20.81 71.082 19.776-6.124 0 0 11.464 143.782-12.81 183.924 0 0 21.65-26.04 36.657-14.736l9.014 19.77s61.233-9.92 34.63-62.175c0 0 47.06-17.134 12.794-89.948 0 0 78.017-68.804-59.443-127.07 0 0-9.45-69.832-59.12-45.685-16.518 8.027-53.582 50.254-53.582 50.254z" stroke="#161413" stroke-width="7.301" stroke-linecap="round" stroke-linejoin="round" fill="none"/><path d="M626.22 248.657s-1.19-62.763-150.254-2.285c-67.172 27.255-91.734 23.98-75.424 42.547 16.315 18.568-18.994 31.013-66.25 40.262-11.25 2.202-55.522 43.616-34.62 80.526 0 0 69.206 108.064-18.365 91.727l-15.526-8.23s-22.207 9.59-20.145 37.29c2.06 27.7-.134 3.427-.134 3.427s-76.616-6.233-6.37-89.213c0 0-127.64-80.974 0-186.914 0 0-93.376-56.375-29.983-132.557 63.392-76.182 119.65-44.774 140.778-33.065 0 0 4.853-172.76 203.595 0 0 0 12.85-79.096 100.227-15.705 87.38 63.393 40.176 117.104 27.923 129.924-12.26 12.82-55.45 42.263-55.45 42.263" fill="#36322F"/><path d="M626.22 248.657s-1.19-62.763-150.254-2.285c-67.172 27.255-91.734 23.98-75.424 42.547 16.315 18.568-18.994 31.013-66.25 40.262-11.25 2.202-55.522 43.616-34.62 80.526 0 0 69.206 108.064-18.365 91.727l-15.526-8.23s-22.207 9.59-20.145 37.29c2.06 27.7-.134 3.427-.134 3.427s-76.616-6.233-6.37-89.213c0 0-127.64-80.974 0-186.914 0 0-93.376-56.375-29.983-132.557 63.392-76.182 119.65-44.774 140.778-33.065 0 0 4.853-172.76 203.595 0 0 0 12.85-79.096 100.227-15.705 87.38 63.393 40.176 117.104 27.923 129.924-12.26 12.82-55.45 42.263-55.45 42.263z" stroke="#161413" stroke-width="7.301" stroke-linecap="round" stroke-linejoin="round" fill="none"/><path d="M461.33 545.903s20.016-98.684-60.077-111.555c0 0-55.06-4.296-76.516 51.493 0 0 3.568 45.765 62.93 60.063 0 0 21.534 5.168 73.663 0" fill="#FFF"/><path d="M461.33 545.903s10.38-107.203-60.077-111.555c-13.502-.84-47.715-5.73-76.516 52.56 0 0 .543 11.817 8.622 22.645" stroke="#231F20" stroke-width="6.986" stroke-linecap="round" stroke-linejoin="round" fill="none"/><path d="M275.383 434.274s9.293 32.43 47.2 55.767l17.05-27.89s-36 9.233-64.25-27.876" fill="#231F20"/></g><path d="M360.846 495.312c0 26.757 17.93 48.45 40.047 48.45 22.116 0 40.052-21.693 40.052-48.45 0-26.76-17.936-48.447-40.052-48.447-22.118 0-40.047 21.687-40.047 48.447z" fill="url(#c)"/><path d="M440.945 495.312c0 26.757-17.935 48.45-40.052 48.45-22.118 0-40.047-21.693-40.047-48.45 0-26.76 17.93-48.447 40.047-48.447 22.117 0 40.052 21.687 40.052 48.447z" stroke="#2E3192" stroke-width="5.555" stroke-linecap="round" stroke-linejoin="round" fill="none"/><path d="M428.53 495.312c0 18.466-12.367 33.43-27.637 33.43-15.265 0-27.625-14.964-27.625-33.43 0-18.465 12.36-33.43 27.625-33.43 15.27 0 27.638 14.965 27.638 33.43" fill="#231F20"/><path d="M406.936 468.436c0 10.88-8.62 19.7-19.253 19.7-10.64 0-19.27-8.82-19.27-19.7 0-10.886 8.63-19.71 19.27-19.71 10.633 0 19.253 8.824 19.253 19.71M550.044 545.903S530.02 447.22 610.12 434.348c0 0 55.07-4.296 76.515 51.493 0 0-3.576 45.765-62.926 60.063 0 0-21.54 5.168-73.666 0" fill="#FFF"/><path d="M550.044 545.903S539.668 438.7 610.12 434.348c13.5-.84 47.714-5.73 76.515 52.56 0 0-.545 11.817-8.622 22.645" stroke="#231F20" stroke-width="6.986" stroke-linecap="round" stroke-linejoin="round" fill="none"/><path d="M735.98 434.274s-9.293 32.43-47.19 55.767l-17.06-27.89s36.002 9.233 64.25-27.876" fill="#231F20"/><path d="M570.424 495.312c0 26.757 17.932 48.45 40.047 48.45 22.127 0 40.054-21.693 40.054-48.45 0-26.76-17.927-48.447-40.053-48.447-22.114 0-40.046 21.687-40.046 48.447z" fill="url(#d)"/><g><path d="M570.424 495.312c0 26.757 17.932 48.45 40.048 48.45 22.125 0 40.053-21.693 40.053-48.45 0-26.76-17.928-48.447-40.053-48.447-22.116 0-40.048 21.687-40.048 48.447z" stroke="#2E3192" stroke-width="5.555" stroke-linecap="round" stroke-linejoin="round" fill="none"/><path d="M582.84 495.312c0 18.466 12.367 33.43 27.632 33.43s27.63-14.964 27.63-33.43c0-18.465-12.365-33.43-27.63-33.43-15.265 0-27.63 14.965-27.63 33.43" fill="#231F20"/><path d="M576.49 468.436c0 10.88 8.63 19.7 19.263 19.7 10.633 0 19.26-8.82 19.26-19.7 0-10.886-8.627-19.71-19.26-19.71-10.633 0-19.263 8.824-19.263 19.71" fill="#FFF"/><path d="M512.446 585.338s-28.002-1.335-33.715-18.995c-6.43-19.846 32.362-27.654 32.803-27.654l-7.295-49.513" stroke="#231F20" stroke-width="7.595" stroke-linecap="round" stroke-linejoin="round" fill="none"/><path d="M644.987 810c-7.052 0-13.48-1.854-18.587-5.785-8.545-6.584-13.324-14.71-14.206-24.373-1.925-21.09 15.532-41.5 17.445-43.673l99.567-140.788c.053-.076.11-.136.17-.208 1.104-1.322 27.335-32.408 51.663-32.408 5.712 0 10.903 1.7 15.43 5.047 17.836 13.19 17.068 44.708-1.712 70.257-.647.878-1.35 1.785-2.182 2.806-.097.23-.22.454-.37.666l-99.69 140.97c-.106.15-.224.066-.353.198C679.27 799.692 661.23 810 644.99 810z" fill="#D7A874"/><path d="M781.04 559.28c-11.202 0-23.843 5.784-37.57 17.193-9.752 8.105-16.493 16.14-16.775 16.478-.12.143-.232.29-.34.443l-99.464 140.67c-2.613 3.007-20.19 24.133-18.174 46.21.973 10.67 6.206 19.733 15.552 26.934 5.727 4.41 12.89 6.738 20.72 6.738 17.268 0 36.318-11.004 49.85-28.758.19-.208.367-.428.53-.66l99.69-140.97c.184-.258.347-.527.49-.8.756-.936 1.41-1.785 2.02-2.612 9.383-12.763 14.828-27.35 15.338-41.08.546-14.71-4.554-26.806-14.358-34.056-5.142-3.803-11.032-5.73-17.508-5.73m0 6.985c4.656 0 9.19 1.282 13.354 4.36 16.313 12.063 15.253 41.293-2.45 65.38-.876 1.187-1.784 2.32-2.705 3.43l.114.09-99.688 140.97-.02-.024c-12.512 16.673-29.91 26.49-44.66 26.49-6.12 0-11.786-1.693-16.455-5.286-31.328-24.142 3.85-63.275 3.85-63.275l99.68-140.974s26.006-31.16 48.98-31.16" fill="#937251"/><path d="M750.554 663c-7.052 0-13.478-2.19-18.583-6.12-8.54-6.585-13.32-14.88-14.2-24.54-1.94-21.227 15.757-41.855 17.476-43.8l87.223-116.007c.758-1.06 9.332-12.582 23.932-12.582 6.97 0 14.097 2.653 21.186 7.89 1.305.965 2.614 1.91 3.914 2.85 9.86 7.122 19.17 13.848 20.824 24.375 1.098 6.99-1.462 14.602-7.83 23.268-.867 1.183-82.95 111.856-86.443 116.567-.105.14-.22.385-.34.505C784.82 652.37 766.79 663 750.56 663z" fill="#D7A874"/><path d="M846.4 456.45c-16.053 0-25.586 12.405-26.734 13.984l-87.133 115.872c-2.34 2.678-20.278 24.003-18.243 46.294.973 10.67 6.205 19.732 15.547 26.932 5.725 4.408 12.888 6.737 20.717 6.737 17.252 0 36.285-10.983 49.82-28.707.17-.182.332-.378.483-.583 3.494-4.71 85.582-115.39 86.456-116.58 6.944-9.455 9.713-17.92 8.463-25.878-1.88-11.964-12.225-19.438-22.23-26.667-1.288-.93-2.587-1.87-3.88-2.825-7.705-5.693-15.532-8.58-23.265-8.58m0 6.987c5.484 0 11.908 1.886 19.112 7.21 16.318 12.07 33.868 21.523 16.17 45.618-.874 1.19-86.435 116.554-86.435 116.554l-.03-.02c-12.517 16.67-29.916 26.484-44.663 26.484-6.12 0-11.786-1.692-16.453-5.285-31.32-24.14 3.85-63.276 3.85-63.276l87.34-116.145s7.78-11.143 21.11-11.143" fill="#937251"/><path d="M917.543 490.965c11.644-11.438 22.12-22.54 29.87-33.62l.045.016s33-33.197 44.052-48.378c1.776-2.43 4.04-7.153-1.216-12.273-7.402-7.206-20.61 6.592-20.61 6.592l-34.204 30.17c-1.5-1.334-3.063-2.693-4.69-4.086 11.056-13.907 32.718-41.324 40.805-52.432 1.77-2.418 4.04-7.148-1.218-12.27-7.407-7.21-20.607 6.59-20.607 6.59l-38.088 43.086c-1.396-1.024-2.827-2.04-4.298-3.062 7.462-11.886 20.792-40.663 27.27-52.09 1.48-2.61 2.923-11.04-2.797-13.502-9.418-4.07-17.878 8.267-17.878 8.267l-27.58 44.45.105.17c-11.543 14.633-17.685 16.88-20.042 17.07 2.74-8.092 4.475-17.518 2.87-26.884-1.12-6.58-3.76-17.498-18.306-20.07 0 0-7.527 27.716-15.234 47.788-.005-.004-.02.002-.02.002-.56 1.18-.924 1.918-.924 1.918-3.048 4.952-5.125 9.736-6.61 14.34-.252.388-.49.765-.73 1.085l.37.06c-7.653 25.458 5.146 44.425 5.146 44.425 5.935 14.42 31.62 35.207 49.652 33.973 18.074-1.25 34.865-21.335 34.865-21.335" fill="#D7A874"/><path d="M917.543 490.965c11.644-11.438 22.12-22.54 29.87-33.62l.045.016s33-33.197 44.052-48.378c1.776-2.43 4.04-7.153-1.216-12.273-7.402-7.206-20.61 6.592-20.61 6.592l-34.204 30.17c-1.5-1.334-3.063-2.693-4.69-4.086 11.056-13.907 32.718-41.324 40.805-52.432 1.77-2.418 4.04-7.148-1.218-12.27-7.407-7.21-20.607 6.59-20.607 6.59l-38.088 43.086c-1.396-1.024-2.827-2.04-4.298-3.062 7.462-11.886 20.792-40.663 27.27-52.09 1.48-2.61 2.923-11.04-2.797-13.502-9.418-4.07-17.878 8.267-17.878 8.267l-27.58 44.45.105.17c-11.543 14.633-17.685 16.88-20.042 17.07 2.74-8.092 4.475-17.518 2.87-26.884-1.12-6.58-3.76-17.498-18.306-20.07 0 0-7.527 27.716-15.234 47.788-.005-.004-.02.002-.02.002-.56 1.18-.924 1.918-.924 1.918-3.048 4.952-5.125 9.736-6.61 14.34-.252.388-.49.765-.73 1.085l.37.06c-7.653 25.458 5.146 44.425 5.146 44.425 5.935 14.42 31.62 35.207 49.652 33.973 18.074-1.25 34.865-21.335 34.865-21.335z" stroke="#937251" stroke-width="6.986" stroke-linecap="round" stroke-linejoin="round" fill="none"/><path d="M866.463 415.663s21.074 32.735 15.87 50.316" fill="#D7A874"/><path d="M866.463 415.663s21.074 32.735 15.87 50.316" stroke="#937251" stroke-width="6.986" stroke-linecap="round" stroke-linejoin="round" fill="none"/><path d="M649.144 813.154c-8.21 0-15.94-2.397-22.355-6.932-10.894-7.706-17.014-17.034-18.194-27.726-1.988-18.023 10.865-33.418 12.623-35.43l20.31-30.51c.65-.973 1.718-1.502 2.807-1.502.63 0 1.27.177 1.836.547l64.82 42.24c.754.49 1.28 1.262 1.46 2.142.18.88.004 1.797-.495 2.545L690.66 790.54c-.123.188-.266.36-.422.517-10.01 13.644-25.705 22.097-41.094 22.097" fill="#ED1C24"/><path d="M644.34 707.687c-2.178 0-4.314 1.056-5.61 3.004l-20.2 30.34c-2.43 2.837-15.367 18.925-13.28 37.836 1.29 11.69 7.88 21.82 19.594 30.106 6.988 4.94 15.39 7.55 24.3 7.55 16.383 0 33.052-8.912 43.69-23.31.23-.25.44-.518.632-.805l21.298-32.014c.995-1.496 1.35-3.33.988-5.09-.362-1.76-1.413-3.303-2.92-4.284l-64.82-42.24c-1.134-.74-2.41-1.093-3.67-1.093m-.007 6.736l64.82 42.24-21.297 32.013-.03-.03c-9.71 13.51-24.57 21.14-38.683 21.14-7.272 0-14.344-2.024-20.41-6.313-35.134-24.855-4.84-58.346-4.84-58.346l20.44-30.704" fill="#BE1E2D"/><path d="M358.827 810.452c-16.246 0-34.287-10.533-47.18-27.52-.127-.13-.244-.27-.35-.42L211.61 641.54c-.15-.212-.274-.435-.37-.665-.84-1.03-1.544-1.936-2.183-2.804-18.78-25.55-19.55-57.067-1.713-70.256 4.527-3.347 9.72-5.045 15.43-5.045 24.33 0 50.558 31.093 51.663 32.416.06.073.116.146.17.222l99.57 140.814c1.91 2.17 19.368 22.64 17.443 43.73-.882 9.664-5.66 17.902-14.205 24.486-5.11 3.934-11.537 6.012-18.588 6.012" fill="#D7A874"/><path d="M223 559.28v6.985V559h-.226c-6.476 0-12.366 2.068-17.507 5.87-9.805 7.25-14.904 19.414-14.358 34.125.508 13.728 5.954 28.35 15.333 41.11.605.823 1.262 1.69 2.023 2.633.144.275.307.552.49.812l99.69 140.973c.165.235.346.46.537.672 13.533 17.75 32.58 28.75 49.844 28.75 7.83 0 14.992-2.33 20.717-6.737 9.35-7.203 14.58-16.265 15.555-26.936 2.014-22.076-15.56-43.203-18.175-46.21l-99.466-140.67c-.108-.15-.222-.3-.34-.44-.284-.34-6.912-8.374-16.662-16.48C246.73 565.065 234 559.28 223 559.28m-.225 6.985c22.974-.002 48.98 31.16 48.98 31.16l99.68 140.974s35.178 39.132 3.848 63.274c-4.67 3.593-10.335 5.285-16.456 5.285-14.75 0-32.145-9.817-44.66-26.49l-.02.024-99.687-140.97.116-.09c-.92-1.11-1.83-2.242-2.705-3.43-17.703-24.086-18.763-53.316-2.45-65.378 4.165-3.08 8.7-4.36 13.355-4.36" fill="#937251"/><path d="M253.26 662.776c-16.234 0-34.266-10.52-47.16-27.486-.12-.12-.234-.25-.338-.39-3.494-4.71-85.576-115.385-86.444-116.567-6.367-8.667-8.928-16.28-7.83-23.27 1.654-10.526 10.966-17.254 20.825-24.377 1.3-.938 2.61-1.885 3.912-2.848 7.09-5.24 14.22-7.895 21.19-7.895 14.6 0 23.173 11.514 23.932 12.575L268.57 588.51c1.718 1.947 19.414 22.547 17.477 43.773-.883 9.662-5.66 17.9-14.202 24.482-5.108 3.933-11.534 6.01-18.585 6.01" fill="#D7A874"/><path d="M157 456.45v6.987V456h.413c-7.734 0-15.56 3.112-23.262 8.802-1.295.958-2.594 2.01-3.882 2.94-10.005 7.23-20.35 14.76-22.23 26.724-1.25 7.957 1.52 16.45 8.465 25.907.873 1.188 82.96 111.883 86.453 116.594.154.208.318.41.49.597 13.534 17.72 32.565 28.7 49.814 28.7 7.83 0 14.99-2.326 20.715-6.732 9.345-7.202 14.576-16.263 15.55-26.933 2.035-22.292-15.903-43.616-18.244-46.294l-87.338-115.87C182.796 468.858 173 456.45 157 456.45m.414 6.987c13.33-.002 21.112 11.142 21.112 11.142l87.337 116.144s35.172 39.135 3.85 63.275c-4.667 3.592-10.333 5.284-16.453 5.284-14.747 0-32.145-9.813-44.664-26.483l-.03.02s-85.56-115.365-86.433-116.555c-17.7-24.095-.15-33.548 16.17-45.62 7.203-5.322 13.627-7.208 19.11-7.208" fill="#937251"/><path d="M86.27 490.965c-11.642-11.438-22.118-22.54-29.87-33.62l-.043.016s-33.002-33.197-44.052-48.378c-1.777-2.43-4.042-7.153 1.216-12.273 7.403-7.206 20.612 6.592 20.612 6.592l34.202 30.17c1.5-1.334 3.063-2.693 4.69-4.086-11.056-13.907-32.717-41.324-40.804-52.432-1.77-2.418-4.04-7.148 1.217-12.27 7.407-7.21 20.607 6.59 20.607 6.59l38.09 43.086c1.394-1.024 2.826-2.04 4.296-3.062-7.462-11.886-20.792-40.663-27.27-52.09-1.48-2.61-2.923-11.04 2.797-13.502 9.42-4.07 17.878 8.267 17.878 8.267l27.58 44.45-.106.17c11.543 14.633 17.684 16.88 20.04 17.07-2.74-8.092-4.474-17.518-2.87-26.884 1.12-6.58 3.76-17.498 18.307-20.07 0 0 7.528 27.716 15.234 47.788.006-.004.023.002.023.002.56 1.18.922 1.918.922 1.918 3.047 4.952 5.124 9.736 6.61 14.34.25.388.488.765.73 1.085l-.37.06c7.652 25.458-5.147 44.425-5.147 44.425-5.934 14.42-31.618 35.207-49.652 33.973-18.073-1.25-34.865-21.335-34.865-21.335" fill="#D7A874"/><path d="M86.27 490.965c-11.642-11.438-22.118-22.54-29.87-33.62l-.043.016s-33.002-33.197-44.052-48.378c-1.777-2.43-4.042-7.153 1.216-12.273 7.403-7.206 20.612 6.592 20.612 6.592l34.202 30.17c1.5-1.334 3.063-2.693 4.69-4.086-11.056-13.907-32.717-41.324-40.804-52.432-1.77-2.418-4.04-7.148 1.217-12.27 7.407-7.21 20.607 6.59 20.607 6.59l38.09 43.086c1.394-1.024 2.826-2.04 4.296-3.062-7.462-11.886-20.792-40.663-27.27-52.09-1.48-2.61-2.923-11.04 2.797-13.502 9.42-4.07 17.878 8.267 17.878 8.267l27.58 44.45-.106.17c11.543 14.633 17.684 16.88 20.04 17.07-2.74-8.092-4.474-17.518-2.87-26.884 1.12-6.58 3.76-17.498 18.307-20.07 0 0 7.528 27.716 15.234 47.788.006-.004.023.002.023.002.56 1.18.922 1.918.922 1.918 3.047 4.952 5.124 9.736 6.61 14.34.25.388.488.765.73 1.085l-.37.06c7.652 25.458-5.147 44.425-5.147 44.425-5.934 14.42-31.618 35.207-49.652 33.973-18.073-1.25-34.865-21.335-34.865-21.335z" stroke="#937251" stroke-width="6.986" stroke-linecap="round" stroke-linejoin="round" fill="none"/><path d="M137.352 415.663s-21.074 32.735-15.87 50.316" fill="#D7A874"/><path d="M137.352 415.663s-21.074 32.735-15.87 50.316" stroke="#937251" stroke-width="6.986" stroke-linecap="round" stroke-linejoin="round" fill="none"/><path d="M354.67 813.154c-15.395 0-31.098-8.46-41.106-22.11-.152-.154-.29-.32-.412-.503l-21.297-32.013c-.498-.748-.676-1.664-.495-2.545.182-.88.707-1.65 1.46-2.14l64.82-42.24c.567-.37 1.205-.548 1.836-.548 1.09 0 2.157.53 2.806 1.502l20.313 30.51c1.757 2.012 14.61 17.407 12.622 35.43-1.18 10.692-7.3 20.02-18.19 27.725-6.417 4.537-14.147 6.934-22.356 6.934z" fill="#ED1C24"/><path d="M359.473 707.687c-1.262 0-2.537.354-3.67 1.093l-64.82 42.24c-1.507.98-2.558 2.523-2.92 4.284-.363 1.76-.007 3.593.988 5.09l21.3 32.013c.192.29.406.562.637.816 10.64 14.39 27.306 23.3 43.684 23.3 8.91 0 17.312-2.61 24.3-7.55 11.713-8.287 18.305-18.416 19.595-30.107 2.086-18.91-10.85-35-13.28-37.836l-20.2-30.34c-1.296-1.947-3.433-3.003-5.612-3.003m.006 6.736l20.44 30.704s30.293 33.49-4.84 58.346c-6.066 4.29-13.138 6.314-20.41 6.314-14.113 0-28.974-7.63-38.683-21.14l-.03.03-21.298-32.014 64.82-42.24" fill="#BE1E2D"/><path d="M503.787 673.703c-43.91 0-76.614-29.608-83.32-75.432-.144-.98.27-1.96 1.07-2.542.465-.337 1.016-.51 1.57-.51.402 0 .807.092 1.182.278.367.182 37.205 18.194 75.97 18.194 2.453 0 4.897-.072 7.264-.216 56.374-3.424 83.902-21.07 84.174-21.25.444-.29.954-.435 1.463-.435.546 0 1.09.165 1.554.497.895.642 1.305 1.767 1.03 2.833-.2.778-5.068 19.28-18.378 38.322-17.753 25.4-42.104 39.303-70.42 40.21-1.058.034-2.115.05-3.16.05" fill="#75151C"/><path d="M593.162 589.12c-1.018 0-2.036.29-2.926.874-.393.255-27.497 17.455-82.874 20.818-2.312.14-4.702.212-7.103.212-38.192 0-74.425-17.738-74.786-17.918-.75-.37-1.56-.554-2.368-.554-1.107 0-2.206.343-3.134 1.017-1.606 1.165-2.432 3.125-2.144 5.088 6.91 47.208 40.65 77.712 85.96 77.712 1.07 0 2.163-.018 3.242-.052 29.19-.935 54.27-15.233 72.523-41.348 13.582-19.43 18.568-38.387 18.774-39.184.55-2.136-.27-4.39-2.064-5.672-.926-.662-2.013-.994-3.1-.994m0 5.334s-19.184 74.383-86.304 76.533c-1.03.033-2.057.05-3.073.05-42.55 0-74.166-28.627-80.682-73.15 0 0 37.272 18.47 77.154 18.47 2.467 0 4.945-.07 7.425-.22 57.907-3.518 85.477-21.683 85.477-21.683" fill="#231F20"/><path d="M470.316 664.294s13.515-23.996 47.502-16.178c0 0 22.416-10.11 47.866-4.415 0 0-16.555 19.59-44.798 25.693 0 0-34.164 4.7-50.57-5.1" fill="#B72025"/><path d="M470.316 664.294s13.515-23.996 47.502-16.178c0 0 22.416-10.11 47.866-4.415 0 0-16.555 19.59-44.798 25.693 0 0-34.164 4.7-50.57-5.1z" stroke="#75151C" stroke-width="7.292" fill="none"/><path d="M505.45 640.36c37.2-2.257 61.816-10.538 74.697-16.198 9.44-15.894 13.015-29.708 13.015-29.708s-27.57 18.165-85.476 21.682c-42.553 2.58-84.58-18.25-84.58-18.25 1.552 10.653 4.615 20.35 8.844 28.99 15.28 5.987 44.27 15.258 73.5 13.485" fill="#FFF"/><path d="M505.45 640.36c37.2-2.257 61.816-10.538 74.697-16.198 9.44-15.894 13.015-29.708 13.015-29.708s-27.57 18.165-85.476 21.682c-42.553 2.58-84.58-18.25-84.58-18.25 1.552 10.653 4.615 20.35 8.844 28.99 15.28 5.987 44.27 15.258 73.5 13.485z" stroke="#231F20" stroke-width="7.292" stroke-linejoin="round" fill="none"/><path d="M593.162 589.12c-1.018 0-2.036.29-2.926.874-.393.255-27.497 17.455-82.874 20.818-2.312.14-4.702.212-7.103.212-38.192 0-74.425-17.738-74.786-17.918-.75-.37-1.56-.554-2.368-.554-1.107 0-2.206.343-3.134 1.017-1.606 1.165-2.432 3.125-2.144 5.088 6.91 47.208 40.65 77.712 85.96 77.712 1.07 0 2.163-.018 3.242-.052 29.19-.935 54.27-15.233 72.523-41.348 13.582-19.43 18.568-38.387 18.774-39.184.55-2.136-.27-4.39-2.064-5.672-.926-.662-2.013-.994-3.1-.994m0 5.334s-19.184 74.383-86.304 76.533c-1.03.033-2.057.05-3.073.05-42.55 0-74.166-28.627-80.682-73.15 0 0 37.272 18.47 77.154 18.47 2.467 0 4.945-.07 7.425-.22 57.907-3.518 85.477-21.683 85.477-21.683"/></g><g><path d="M771.508 625.6c0 9.14-7.41 16.55-16.548 16.55-9.14 0-16.55-7.41-16.55-16.55s7.41-16.548 16.55-16.548 16.548 7.41 16.548 16.548" fill="#231F20"/><path d="M771.508 625.6c0 9.14-7.41 16.55-16.548 16.55-9.14 0-16.55-7.41-16.55-16.55s7.41-16.548 16.55-16.548 16.548 7.41 16.548 16.548z" stroke="#FFF" stroke-width="6.084" fill="none"/><path d="M267.712 627.6c0 9.14-7.41 16.55-16.548 16.55-9.14 0-16.55-7.41-16.55-16.55s7.41-16.548 16.55-16.548 16.548 7.41 16.548 16.548" fill="#231F20"/><path d="M267.712 627.6c0 9.14-7.41 16.55-16.548 16.55-9.14 0-16.55-7.41-16.55-16.55s7.41-16.548 16.55-16.548 16.548 7.41 16.548 16.548z" stroke="#FFF" stroke-width="6.084" fill="none"/><path d="M669.637 769.676c0 9.14-7.408 16.55-16.548 16.55-9.14 0-16.55-7.41-16.55-16.55s7.41-16.548 16.55-16.548 16.547 7.408 16.547 16.548" fill="#231F20"/><path d="M669.637 769.676c0 9.14-7.408 16.55-16.548 16.55-9.14 0-16.55-7.41-16.55-16.55s7.41-16.548 16.55-16.548 16.547 7.408 16.547 16.548z" stroke="#FFF" stroke-width="6.084" fill="none"/><path d="M366.28 769.676c0 9.14-7.41 16.55-16.547 16.55-9.14 0-16.55-7.41-16.55-16.55s7.41-16.548 16.55-16.548c9.138 0 16.548 7.408 16.548 16.548" fill="#231F20"/><path d="M366.28 769.676c0 9.14-7.41 16.55-16.547 16.55-9.14 0-16.55-7.41-16.55-16.55s7.41-16.548 16.55-16.548c9.138 0 16.548 7.408 16.548 16.548z" stroke="#FFF" stroke-width="6.084" fill="none"/><path d="M884.463 479.356c0 9.14-7.41 16.55-16.548 16.55-9.14 0-16.55-7.41-16.55-16.55s7.41-16.548 16.55-16.548c9.138 0 16.548 7.408 16.548 16.548" fill="#231F20"/><path d="M884.463 479.356c0 9.14-7.41 16.55-16.548 16.55-9.14 0-16.55-7.41-16.55-16.55s7.41-16.548 16.55-16.548c9.138 0 16.548 7.408 16.548 16.548z" stroke="#FFF" stroke-width="6.084" fill="none"/><path d="M156.023 478.488c0 9.14-7.41 16.55-16.55 16.55s-16.55-7.41-16.55-16.55 7.41-16.548 16.55-16.548 16.55 7.408 16.55 16.548" fill="#231F20"/><path d="M156.023 478.488c0 9.14-7.41 16.55-16.55 16.55s-16.55-7.41-16.55-16.55 7.41-16.548 16.55-16.548 16.55 7.408 16.55 16.548z" stroke="#FFF" stroke-width="6.084" fill="none"/></g></svg>