<?xml version="1.0" encoding="UTF-8"?>
<!DOCTYPE svg PUBLIC "-//W3C//DTD SVG 1.1//EN" "http://www.w3.org/Graphics/SVG/1.1/DTD/svg11.dtd">
<svg version="1.1" xmlns="http://www.w3.org/2000/svg" xmlns:xlink="http://www.w3.org/1999/xlink" x="0" y="0" width="150" height="150" viewBox="0, 0, 150, 150">
  <g id="Layer_1">
    <path d="M-17.296,-12.893 L162.617,-12.893 L162.617,160.64 L-17.296,160.64 L-17.296,-12.893 z" fill="#FFFFFF"/>
    <path d="M49.073,49.342 L99.474,49.342 L99.474,75.401 L49.073,75.401 L49.073,49.342 z" fill="#FF5555"/>
    <path d="M74.273,75.401 C60.355,75.401 49.073,64.119 49.073,50.201 C49.073,36.283 60.355,25 74.273,25 C88.191,25 99.474,36.283 99.474,50.201 C99.474,64.119 88.191,75.401 74.273,75.401 z" fill="#FF5555"/>
    <path d="M42.547,78.888 L106,78.888 L106,94.662 L42.547,94.662 L42.547,78.888 z" fill="#FF5555"/>
    <path d="M59.445,97.742 L62.757,97.742 C64.398,97.742 65.729,98.88 65.729,100.283 L65.729,122.459 C65.729,123.862 64.398,125 62.757,125 L59.445,125 C57.803,125 56.472,123.862 56.472,122.459 L56.472,100.283 C56.472,98.88 57.803,97.742 59.445,97.742 z" fill="#959595"/>
    <path d="M85.79,97.742 L89.102,97.742 C90.744,97.742 92.075,98.88 92.075,100.283 L92.075,122.459 C92.075,123.862 90.744,125 89.102,125 L85.79,125 C84.148,125 82.817,123.862 82.817,122.459 L82.817,100.283 C82.817,98.88 84.148,97.742 85.79,97.742 z" fill="#959595"/>
  </g>
</svg>
