<?xml version="1.0" encoding="UTF-8"?>
<!DOCTYPE svg PUBLIC "-//W3C//DTD SVG 1.1//EN" "http://www.w3.org/Graphics/SVG/1.1/DTD/svg11.dtd">
<svg version="1.1" xmlns="http://www.w3.org/2000/svg" xmlns:xlink="http://www.w3.org/1999/xlink" x="0" y="0" width="125" height="40" viewBox="0, 0, 125, 40">
  <g id="Button">
    <g>
      <path d="M7.312,-0 L117.688,-0 C121.726,-0 125,3.134 125,7 L125,33 C125,36.866 121.726,40 117.688,40 L7.312,40 C3.274,40 -0,36.866 -0,33 L-0,7 C-0,3.134 3.274,-0 7.312,-0 z" fill="#EE1B0D"/>
      <path d="M117.688,-0 C121.726,-0 125,3.134 125,7 L125,33 C125,36.866 121.726,40 117.688,40 L7.312,40 C3.274,40 -0,36.866 -0,33 L0,7 C-0,3.134 3.274,-0 7.312,-0 L117.688,-0 z M117.688,1 L7.312,1 C3.817,1 1,3.696 1,7 L1,33 C1,36.304 3.817,39 7.312,39 L117.688,39 C121.183,39 124,36.304 124,33 L124,7 C124,3.696 121.183,1 117.688,1 z" fill="#EE1B0D"/>
    </g>
    <g id="YouTube">
      <g>
        <path d="M112.648,21.784 Q113.594,21.784 114.483,22.228 Q115.371,22.672 115.836,23.377 Q116.284,24.05 116.433,24.946 Q116.566,25.56 116.566,26.905 L110.05,26.905 Q110.092,28.258 110.689,29.076 Q111.287,29.893 112.54,29.893 Q113.711,29.893 114.408,29.121 Q114.806,28.673 114.972,28.084 L116.442,28.084 Q116.384,28.574 116.056,29.175 Q115.728,29.777 115.321,30.159 Q114.64,30.823 113.636,31.056 Q113.096,31.188 112.416,31.188 Q110.756,31.188 109.602,29.981 Q108.448,28.773 108.448,26.598 Q108.448,24.456 109.61,23.12 Q110.772,21.784 112.648,21.784 z M115.031,25.718 Q114.939,24.747 114.607,24.166 Q113.993,23.087 112.557,23.087 Q111.528,23.087 110.83,23.83 Q110.133,24.573 110.092,25.718 z" fill="#FFFFFF"/>
        <path d="M112.648,21.784 Q113.594,21.784 114.483,22.228 Q115.371,22.672 115.836,23.377 Q116.284,24.05 116.433,24.946 Q116.566,25.56 116.566,26.905 L110.05,26.905 Q110.092,28.258 110.689,29.076 Q111.287,29.893 112.54,29.893 Q113.711,29.893 114.408,29.121 Q114.806,28.673 114.972,28.084 L116.442,28.084 Q116.384,28.574 116.056,29.175 Q115.728,29.777 115.321,30.159 Q114.64,30.823 113.636,31.056 Q113.096,31.188 112.416,31.188 Q110.756,31.188 109.602,29.981 Q108.448,28.773 108.448,26.598 Q108.448,24.456 109.61,23.12 Q110.772,21.784 112.648,21.784 z M115.031,25.718 Q114.939,24.747 114.607,24.166 Q113.993,23.087 112.557,23.087 Q111.528,23.087 110.83,23.83 Q110.133,24.573 110.092,25.718 z" fill-opacity="0" stroke="#FFFFFF" stroke-width="0.5"/>
      </g>
      <g>
        <path d="M99.375,18.638 L100.828,18.638 L100.828,23.062 Q101.318,22.423 101.998,22.087 Q102.679,21.75 103.476,21.75 Q105.136,21.75 106.169,22.892 Q107.203,24.033 107.203,26.258 Q107.203,28.366 106.182,29.761 Q105.161,31.155 103.351,31.155 Q102.339,31.155 101.641,30.665 Q101.226,30.375 100.753,29.736 L100.753,30.873 L99.375,30.873 z M103.26,29.835 Q104.472,29.835 105.074,28.872 Q105.676,27.91 105.676,26.332 Q105.676,24.93 105.074,24.008 Q104.472,23.087 103.302,23.087 Q102.281,23.087 101.513,23.842 Q100.745,24.598 100.745,26.332 Q100.745,27.586 101.06,28.366 Q101.65,29.835 103.26,29.835 z" fill="#FFFFFF"/>
        <path d="M99.375,18.638 L100.828,18.638 L100.828,23.062 Q101.318,22.423 101.998,22.087 Q102.679,21.75 103.476,21.75 Q105.136,21.75 106.169,22.892 Q107.203,24.033 107.203,26.258 Q107.203,28.366 106.182,29.761 Q105.161,31.155 103.351,31.155 Q102.339,31.155 101.641,30.665 Q101.226,30.375 100.753,29.736 L100.753,30.873 L99.375,30.873 z M103.26,29.835 Q104.472,29.835 105.074,28.872 Q105.676,27.91 105.676,26.332 Q105.676,24.93 105.074,24.008 Q104.472,23.087 103.302,23.087 Q102.281,23.087 101.513,23.842 Q100.745,24.598 100.745,26.332 Q100.745,27.586 101.06,28.366 Q101.65,29.835 103.26,29.835 z" fill-opacity="0" stroke="#FFFFFF" stroke-width="0.5"/>
      </g>
      <g>
        <path d="M91.531,21.983 L91.531,27.885 Q91.531,28.565 91.747,28.997 Q92.145,29.794 93.233,29.794 Q94.793,29.794 95.358,28.399 Q95.665,27.652 95.665,26.349 L95.665,21.983 L97.159,21.983 L97.159,30.873 L95.748,30.873 L95.764,29.561 Q95.474,30.068 95.042,30.416 Q94.187,31.114 92.967,31.114 Q91.066,31.114 90.377,29.844 Q90.004,29.163 90.004,28.026 L90.004,21.983 z" fill="#FFFFFF"/>
        <path d="M91.531,21.983 L91.531,27.885 Q91.531,28.565 91.747,28.997 Q92.145,29.794 93.233,29.794 Q94.793,29.794 95.358,28.399 Q95.665,27.652 95.665,26.349 L95.665,21.983 L97.159,21.983 L97.159,30.873 L95.748,30.873 L95.764,29.561 Q95.474,30.068 95.042,30.416 Q94.187,31.114 92.967,31.114 Q91.066,31.114 90.377,29.844 Q90.004,29.163 90.004,28.026 L90.004,21.983 z" fill-opacity="0" stroke="#FFFFFF" stroke-width="0.5"/>
      </g>
      <g>
        <path d="M89.348,18.679 L89.348,20.132 L85.239,20.132 L85.239,30.873 L83.562,30.873 L83.562,20.132 L79.453,20.132 L79.453,18.679 z" fill="#FFFFFF"/>
        <path d="M89.348,18.679 L89.348,20.132 L85.239,20.132 L85.239,30.873 L83.562,30.873 L83.562,20.132 L79.453,20.132 L79.453,18.679 z" fill-opacity="0" stroke="#FFFFFF" stroke-width="0.5"/>
      </g>
      <g>
        <path d="M72.315,21.983 L72.315,27.885 Q72.315,28.565 72.531,28.997 Q72.929,29.794 74.016,29.794 Q75.577,29.794 76.141,28.399 Q76.448,27.652 76.448,26.349 L76.448,21.983 L77.943,21.983 L77.943,30.873 L76.532,30.873 L76.548,29.561 Q76.258,30.068 75.826,30.416 Q74.971,31.114 73.751,31.114 Q71.85,31.114 71.161,29.844 Q70.787,29.163 70.787,28.026 L70.787,21.983 z" fill="#FFFFFF"/>
        <path d="M72.315,21.983 L72.315,27.885 Q72.315,28.565 72.531,28.997 Q72.929,29.794 74.016,29.794 Q75.577,29.794 76.141,28.399 Q76.448,27.652 76.448,26.349 L76.448,21.983 L77.943,21.983 L77.943,30.873 L76.532,30.873 L76.548,29.561 Q76.258,30.068 75.826,30.416 Q74.971,31.114 73.751,31.114 Q71.85,31.114 71.161,29.844 Q70.787,29.163 70.787,28.026 L70.787,21.983 z" fill-opacity="0" stroke="#FFFFFF" stroke-width="0.5"/>
      </g>
      <g>
        <path d="M64.894,29.91 Q66.38,29.91 66.932,28.785 Q67.484,27.661 67.484,26.283 Q67.484,25.037 67.085,24.257 Q66.454,23.029 64.91,23.029 Q63.541,23.029 62.918,24.075 Q62.296,25.12 62.296,26.598 Q62.296,28.017 62.918,28.964 Q63.541,29.91 64.894,29.91 z M64.952,21.725 Q66.67,21.725 67.857,22.871 Q69.044,24.016 69.044,26.241 Q69.044,28.391 67.998,29.794 Q66.952,31.197 64.753,31.197 Q62.918,31.197 61.839,29.956 Q60.76,28.715 60.76,26.623 Q60.76,24.382 61.897,23.054 Q63.034,21.725 64.952,21.725 z" fill="#FFFFFF"/>
        <path d="M64.894,29.91 Q66.38,29.91 66.932,28.785 Q67.484,27.661 67.484,26.283 Q67.484,25.037 67.085,24.257 Q66.454,23.029 64.91,23.029 Q63.541,23.029 62.918,24.075 Q62.296,25.12 62.296,26.598 Q62.296,28.017 62.918,28.964 Q63.541,29.91 64.894,29.91 z M64.952,21.725 Q66.67,21.725 67.857,22.871 Q69.044,24.016 69.044,26.241 Q69.044,28.391 67.998,29.794 Q66.952,31.197 64.753,31.197 Q62.918,31.197 61.839,29.956 Q60.76,28.715 60.76,26.623 Q60.76,24.382 61.897,23.054 Q63.034,21.725 64.952,21.725 z" fill-opacity="0" stroke="#FFFFFF" stroke-width="0.5"/>
      </g>
      <g>
        <path d="M50.841,18.679 L52.766,18.679 L56.269,24.539 L59.772,18.679 L61.706,18.679 L57.099,25.959 L57.099,30.873 L55.448,30.873 L55.448,25.959 z" fill="#FFFFFF"/>
        <path d="M50.841,18.679 L52.766,18.679 L56.269,24.539 L59.772,18.679 L61.706,18.679 L57.099,25.959 L57.099,30.873 L55.448,30.873 L55.448,25.959 z" fill-opacity="0" stroke="#FFFFFF" stroke-width="0.5"/>
      </g>
    </g>
    <g display="none">
      <text transform="matrix(1, 0, 0, 1, 84.521, 25.043)">
        <tspan x="-34.029" y="5.83" font-family="Helvetica" font-size="17" fill="#FFFFFF">YouTube</tspan>
      </text>
      <path d="M50.841,18.679 L52.766,18.679 L56.269,24.539 L59.772,18.679 L61.706,18.679 L57.099,25.959 L57.099,30.873 L55.448,30.873 L55.448,25.959 z M64.894,29.91 Q66.38,29.91 66.932,28.785 Q67.484,27.661 67.484,26.283 Q67.484,25.037 67.085,24.257 Q66.454,23.029 64.91,23.029 Q63.541,23.029 62.918,24.075 Q62.296,25.12 62.296,26.598 Q62.296,28.017 62.918,28.964 Q63.541,29.91 64.894,29.91 z M64.952,21.725 Q66.67,21.725 67.857,22.871 Q69.044,24.016 69.044,26.241 Q69.044,28.391 67.998,29.794 Q66.952,31.197 64.753,31.197 Q62.918,31.197 61.839,29.956 Q60.76,28.715 60.76,26.623 Q60.76,24.382 61.897,23.054 Q63.034,21.725 64.952,21.725 z M72.315,21.983 L72.315,27.885 Q72.315,28.565 72.531,28.997 Q72.929,29.794 74.016,29.794 Q75.577,29.794 76.141,28.399 Q76.449,27.652 76.449,26.349 L76.449,21.983 L77.943,21.983 L77.943,30.873 L76.532,30.873 L76.548,29.561 Q76.258,30.068 75.826,30.416 Q74.971,31.114 73.751,31.114 Q71.85,31.114 71.161,29.844 Q70.787,29.163 70.787,28.026 L70.787,21.983 z M89.348,18.679 L89.348,20.132 L85.239,20.132 L85.239,30.873 L83.562,30.873 L83.562,20.132 L79.453,20.132 L79.453,18.679 z M91.531,21.983 L91.531,27.885 Q91.531,28.565 91.747,28.997 Q92.145,29.794 93.233,29.794 Q94.793,29.794 95.358,28.399 Q95.665,27.652 95.665,26.349 L95.665,21.983 L97.159,21.983 L97.159,30.873 L95.748,30.873 L95.764,29.561 Q95.474,30.068 95.042,30.416 Q94.187,31.114 92.967,31.114 Q91.066,31.114 90.377,29.844 Q90.004,29.163 90.004,28.026 L90.004,21.983 z M99.375,18.638 L100.828,18.638 L100.828,23.062 Q101.318,22.423 101.998,22.087 Q102.679,21.75 103.476,21.75 Q105.136,21.75 106.169,22.892 Q107.203,24.033 107.203,26.258 Q107.203,28.366 106.182,29.761 Q105.161,31.155 103.351,31.155 Q102.339,31.155 101.641,30.665 Q101.226,30.375 100.753,29.736 L100.753,30.873 L99.375,30.873 z M103.26,29.835 Q104.472,29.835 105.074,28.872 Q105.676,27.91 105.676,26.332 Q105.676,24.93 105.074,24.008 Q104.472,23.087 103.302,23.087 Q102.281,23.087 101.513,23.842 Q100.745,24.598 100.745,26.332 Q100.745,27.586 101.06,28.366 Q101.65,29.835 103.26,29.835 z M112.648,21.784 Q113.594,21.784 114.483,22.228 Q115.371,22.672 115.836,23.377 Q116.284,24.05 116.433,24.946 Q116.566,25.56 116.566,26.905 L110.05,26.905 Q110.092,28.258 110.689,29.076 Q111.287,29.893 112.54,29.893 Q113.711,29.893 114.408,29.121 Q114.806,28.673 114.972,28.084 L116.442,28.084 Q116.384,28.574 116.056,29.175 Q115.728,29.777 115.321,30.159 Q114.64,30.823 113.636,31.056 Q113.096,31.188 112.416,31.188 Q110.756,31.188 109.602,29.981 Q108.448,28.773 108.448,26.598 Q108.448,24.456 109.61,23.12 Q110.772,21.784 112.648,21.784 z M115.031,25.718 Q114.939,24.747 114.607,24.166 Q113.993,23.087 112.557,23.087 Q111.528,23.087 110.83,23.83 Q110.133,24.573 110.092,25.718 z" fill-opacity="0" stroke="#FFFFFF" stroke-width="0.5"/>
    </g>
    <g id="Watch_on">
      <path d="M84.666,9.995 L85.418,9.995 L85.418,10.663 Q85.751,10.25 86.125,10.07 Q86.499,9.89 86.956,9.89 Q87.958,9.89 88.309,10.588 Q88.502,10.971 88.502,11.682 L88.502,14.702 L87.698,14.702 L87.698,11.735 Q87.698,11.305 87.571,11.041 Q87.36,10.601 86.806,10.601 Q86.525,10.601 86.345,10.659 Q86.02,10.755 85.773,11.045 Q85.576,11.278 85.516,11.526 Q85.457,11.775 85.457,12.236 L85.457,14.702 L84.666,14.702 z" fill="#FFFFFF"/>
      <path d="M81.428,14.192 Q82.215,14.192 82.507,13.596 Q82.799,13.001 82.799,12.271 Q82.799,11.612 82.589,11.199 Q82.255,10.549 81.437,10.549 Q80.712,10.549 80.382,11.102 Q80.053,11.656 80.053,12.438 Q80.053,13.19 80.382,13.691 Q80.712,14.192 81.428,14.192 z M81.459,9.859 Q82.369,9.859 82.997,10.465 Q83.626,11.072 83.626,12.249 Q83.626,13.388 83.072,14.13 Q82.518,14.873 81.354,14.873 Q80.382,14.873 79.811,14.216 Q79.24,13.559 79.24,12.452 Q79.24,11.265 79.842,10.562 Q80.444,9.859 81.459,9.859 z" fill="#FFFFFF"/>
      <path d="M71.855,8.224 L72.646,8.224 L72.646,10.632 Q72.927,10.276 73.151,10.131 Q73.534,9.881 74.105,9.881 Q75.129,9.881 75.493,10.597 Q75.691,10.988 75.691,11.682 L75.691,14.702 L74.878,14.702 L74.878,11.735 Q74.878,11.217 74.746,10.975 Q74.531,10.588 73.938,10.588 Q73.446,10.588 73.046,10.927 Q72.646,11.265 72.646,12.205 L72.646,14.702 L71.855,14.702 z" fill="#FFFFFF"/>
      <path d="M69.07,9.859 Q69.865,9.859 70.364,10.245 Q70.863,10.632 70.964,11.577 L70.195,11.577 Q70.124,11.142 69.874,10.854 Q69.623,10.566 69.07,10.566 Q68.314,10.566 67.989,11.305 Q67.778,11.784 67.778,12.487 Q67.778,13.194 68.077,13.678 Q68.375,14.161 69.017,14.161 Q69.509,14.161 69.797,13.86 Q70.085,13.559 70.195,13.036 L70.964,13.036 Q70.832,13.972 70.305,14.405 Q69.777,14.838 68.955,14.838 Q68.033,14.838 67.483,14.163 Q66.934,13.489 66.934,12.478 Q66.934,11.239 67.536,10.549 Q68.138,9.859 69.07,9.859 z" fill="#FFFFFF"/>
      <path d="M64.813,8.681 L65.612,8.681 L65.612,9.995 L66.364,9.995 L66.364,10.641 L65.612,10.641 L65.612,13.713 Q65.612,13.959 65.779,14.042 Q65.872,14.091 66.087,14.091 Q66.144,14.091 66.21,14.089 Q66.276,14.086 66.364,14.078 L66.364,14.702 Q66.228,14.741 66.08,14.759 Q65.933,14.776 65.762,14.776 Q65.208,14.776 65.01,14.493 Q64.813,14.209 64.813,13.757 L64.813,10.641 L64.175,10.641 L64.175,9.995 L64.813,9.995 z" fill="#FFFFFF"/>
      <path d="M60.155,13.449 Q60.155,13.792 60.406,13.99 Q60.656,14.187 60.999,14.187 Q61.417,14.187 61.808,13.994 Q62.467,13.673 62.467,12.944 L62.467,12.307 Q62.322,12.399 62.093,12.46 Q61.865,12.522 61.645,12.548 L61.166,12.61 Q60.735,12.667 60.52,12.79 Q60.155,12.996 60.155,13.449 z M62.071,11.849 Q62.344,11.814 62.436,11.621 Q62.489,11.516 62.489,11.318 Q62.489,10.913 62.201,10.731 Q61.913,10.549 61.377,10.549 Q60.757,10.549 60.498,10.883 Q60.353,11.067 60.309,11.432 L59.571,11.432 Q59.593,10.562 60.136,10.221 Q60.678,9.881 61.395,9.881 Q62.225,9.881 62.744,10.197 Q63.258,10.514 63.258,11.182 L63.258,13.893 Q63.258,14.016 63.308,14.091 Q63.359,14.165 63.522,14.165 Q63.574,14.165 63.64,14.159 Q63.706,14.152 63.781,14.139 L63.781,14.724 Q63.596,14.776 63.5,14.789 Q63.403,14.803 63.236,14.803 Q62.827,14.803 62.643,14.513 Q62.546,14.359 62.506,14.078 Q62.265,14.394 61.812,14.627 Q61.36,14.86 60.815,14.86 Q60.16,14.86 59.745,14.462 Q59.329,14.064 59.329,13.467 Q59.329,12.812 59.738,12.452 Q60.147,12.091 60.81,12.008 z" fill="#FFFFFF"/>
      <path d="M51.816,8.246 L53.033,13.497 L54.492,8.246 L55.441,8.246 L56.9,13.497 L58.117,8.246 L59.075,8.246 L57.379,14.702 L56.461,14.702 L54.971,9.349 L53.472,14.702 L52.554,14.702 L50.866,8.246 z" fill="#FFFFFF"/>
    </g>
    <text transform="matrix(1, 0, 0, 1, 70.304, 12.14)" display="none">
      <tspan x="-24.438" y="2.5" font-family="Helvetica" font-size="9" kerning="0.1" fill="#FFFFFF">Watch on</tspan>
    </text>
    <g id="Logo">
      <path d="M41.1,11.927 C40.719,10.476 39.573,9.331 38.123,8.93 C35.508,8.224 25.01,8.224 25.01,8.224 C25.01,8.224 14.512,8.224 11.878,8.93 C10.427,9.312 9.301,10.457 8.9,11.927 C8.213,14.561 8.213,20.058 8.213,20.058 C8.213,20.058 8.213,25.555 8.919,28.189 C9.301,29.64 10.446,30.785 11.897,31.186 C14.512,31.892 25.01,31.892 25.01,31.892 C25.01,31.892 35.508,31.892 38.142,31.186 C39.592,30.804 40.719,29.659 41.119,28.189 C41.806,25.555 41.806,20.058 41.806,20.058 C41.806,20.058 41.806,14.561 41.1,11.927 z" fill="#FFFFFF"/>
      <path d="M21.574,25.059 L21.574,15.057 L30.354,20.058 z" fill="#EE1B0D"/>
    </g>
  </g>
</svg>
